P2
# Created by GIMP version 2.10.8 PNM plug-in
64 64
65535
17965
18224
16181
15561
15729
15750
15967
16329
16762
16732
17050
16911
16343
17086
17376
17229
17196
17067
16969
16789
16401
16178
15934
15812
15636
15403
15363
15051
14843
14677
14340
14140
13856
13550
13412
13237
13068
13053
12796
12848
12651
12448
12266
12433
12156
12005
11908
11606
11403
11145
11038
10982
10878
10841
10826
10778
10814
10767
10520
10311
10217
10103
9823
9857
16731
16698
15755
15543
15602
15495
15845
16580
18012
17605
17424
17725
17125
17953
17948
17789
17644
17653
17429
17210
16908
16827
16306
16082
16060
15729
15715
15655
15319
15123
14869
14556
14323
14055
13731
13619
13378
13365
13240
13253
12990
12923
12761
12784
12629
12392
12185
11957
11697
11624
11476
11280
11241
11209
11116
11115
10925
10836
10686
10515
10325
10153
9980
9933
14782
15466
15694
15441
15448
15908
16260
16583
17273
17464
17735
18458
18323
18753
18555
18373
18104
18144
18083
17779
17556
17195
16876
16594
16328
16396
16185
15729
15548
15479
15290
14873
14402
14284
14085
13937
13891
13841
13550
13571
13555
13321
13209
13188
13041
12822
12525
12342
12175
12013
11949
11639
11642
11563
11485
11446
11211
10974
10823
10653
10494
10289
10171
10066
14533
15130
15942
15782
15602
16309
16716
16993
17200
17813
18351
19051
19018
18948
19130
19038
19051
18796
18696
18451
18175
17853
17493
17274
16911
16816
16570
16259
15850
15941
15482
14979
14758
14906
14552
14542
14632
14299
14015
14250
14200
13845
13657
13732
13570
13287
13057
12752
12540
12392
12226
12015
11959
12055
11901
11682
11498
11316
11034
10825
10631
10583
10339
10155
14614
15147
15787
16326
16348
17040
17511
17868
18411
19919
19794
19744
19872
19735
19837
19849
19693
19402
19031
18920
18730
18197
17971
17910
17710
17327
17083
16738
16313
16140
15903
15694
15644
15419
15092
15016
14840
15018
14427
14581
14766
14418
14069
14094
13970
13627
13427
13118
12932
12773
12600
12362
12356
12292
12238
12018
11798
11558
11291
11159
10937
10648
10511
10309
14831
15396
15828
16741
18409
18363
17853
18514
19198
20132
20390
20241
20486
20617
20499
20327
20239
19780
19623
19749
19453
18873
18590
18412
18054
17678
17525
16990
16733
16572
16305
16261
16127
15909
15884
15554
15599
15460
15183
15183
15025
14913
14736
14702
14349
14159
13871
13729
13400
13267
12988
12674
12762
12577
12627
12403
12074
11857
11532
11457
11076
10779
10568
10256
14765
15658
16234
17006
18368
18136
17887
18754
19546
20227
20567
20760
20914
20951
20982
21016
20951
20747
20312
20119
19623
19519
19373
19077
18617
18318
17922
17412
17152
16984
16764
16672
16533
16591
16362
16243
16184
16047
15972
15743
15481
15336
15297
15330
14895
14575
14339
14181
13919
13616
13617
13282
13272
13030
12840
12626
12288
12020
11728
11635
11363
10832
10585
10265
15049
15841
16492
16985
17431
17732
18091
18778
19633
20333
20828
21195
21359
21447
21610
21522
21560
21412
21180
20821
20763
20434
20071
19491
19118
18909
18538
18064
17832
17626
17259
17125
17048
17044
17066
16844
16856
16462
16513
16261
16154
16061
15998
15715
15369
15080
14810
14533
14258
14084
14084
13757
13581
13459
13241
12823
12555
12192
11998
11722
11516
11030
10739
10425
15161
15854
16278
16889
17174
17610
18202
18985
19772
20528
21271
21730
21961
21944
21994
22067
22137
21761
21764
22061
21895
20910
20653
20092
19824
19739
19517
18807
18418
17956
17762
17773
17720
17645
17756
17358
17244
16944
17131
16957
16641
16762
16497
16182
15842
15525
15338
15013
14609
14522
14406
14036
13928
13841
13424
13098
12642
12318
12037
11720
11478
11141
10886
10571
14997
15515
16143
16699
17126
17696
18228
19174
19961
20732
21683
22143
22429
22491
22636
22660
23120
22719
22696
22732
22261
21644
21385
20986
20513
20695
19994
19131
18631
18436
18129
18450
18555
18363
18424
18126
18024
17784
17867
17490
17547
17544
17152
16638
16333
16009
15589
15276
15053
14782
14635
14498
14421
14061
13589
13239
12793
12511
12159
11777
11466
11230
10866
10587
15155
15393
15996
16856
17495
18221
18786
19330
20088
21092
22039
22838
23118
23131
23019
23101
23921
23978
23499
23613
23343
23007
22578
22092
21709
22345
21486
20479
19276
18888
19068
19316
19534
19306
18978
18958
18854
18447
18466
18222
18136
18173
17497
17200
16893
16538
16054
15699
15460
15371
15098
15051
14673
14115
13688
13319
12909
12525
12109
11750
11555
11213
10964
10784
15063
15428
16180
16937
17542
18270
18921
19295
20179
21284
22421
22655
23357
23658
23629
23822
24568
25215
24578
24551
24329
23977
23608
23131
22920
23652
22553
22161
21151
20160
20141
20543
20478
20365
19713
19810
19528
19379
19228
19007
18928
18717
18229
17820
17593
17048
16526
16482
15991
15762
15632
15176
14762
14360
13866
13326
12920
12494
12165
11943
11625
11389
11130
10922
15263
15842
16350
16872
17581
18259
19090
19899
21028
22122
22431
23306
23770
24082
24495
24795
24867
25494
25602
25491
25466
25125
24678
24504
24227
24078
23864
24156
23104
22674
22240
21834
21572
21444
20856
20819
20675
20274
19989
19695
19737
19184
19008
18445
18084
17586
17034
16957
16655
16205
15748
15222
14804
14393
13901
13476
13028
12647
12275
12045
11631
11454
11129
11068
15508
16232
16971
17401
18170
18746
19663
20489
21307
21877
22522
23612
24642
25205
25368
25737
25791
26237
26522
26396
26447
26170
26075
26234
25937
25663
26165
26257
25627
25465
24743
23813
22989
22627
21819
21716
21596
21207
20857
20759
20408
19977
19588
19276
18658
18208
17804
17310
17037
16604
15818
15456
15032
14542
14141
13733
13252
12782
12392
12154
11873
11627
11336
11083
15630
16382
17254
18160
19102
18996
20021
20830
21476
22042
23045
24127
25227
25983
26663
26933
27133
27319
27998
27723
27431
27454
27590
27844
27851
27789
28912
29393
28692
28004
26602
25435
24525
23745
23211
22925
22640
22221
21906
21772
21247
20763
20282
19704
19095
18688
18377
17780
17255
16799
16251
15656
15242
14756
14303
13898
13466
12907
12545
12196
11984
11845
11561
11288
15651
16488
17208
18126
19201
19160
19970
20953
21662
22153
23288
24669
26806
27086
27616
28777
28621
28313
28920
28994
28582
28649
29170
29551
29723
30133
31419
32181
30272
28649
27646
26623
25575
24616
24528
24172
23837
23389
23071
22381
22022
21319
20558
19790
19457
19029
18587
18134
17569
16992
16538
15926
15425
15015
14549
14158
13724
13161
12689
12430
12234
12050
11659
11776
15813
16464
17106
17935
18424
19141
20006
21114
21998
22609
23614
24956
26314
26889
28780
29829
30422
29614
29657
30161
30080
29827
30772
31320
31449
32288
33967
32910
31050
29976
28759
27852
26770
26286
25918
25549
24946
24353
23673
23122
22543
21970
20995
20243
19887
19378
19117
18481
17921
17385
16850
16401
15829
15415
14848
14370
13877
13368
12986
12607
12516
12571
12418
12673
15908
16547
17103
17834
18534
19309
20352
21420
22179
22701
23814
25181
26153
27478
29465
30210
31550
31177
30959
31321
31796
31454
32109
32853
33346
33828
35039
34089
32909
31479
30155
29159
28881
28365
27641
26844
25979
25205
24214
23888
23306
22114
21273
20701
20648
20122
19618
19043
18398
17902
17287
16698
16045
15591
15130
14602
14065
13661
13168
12838
12857
12959
13046
13596
16025
16510
17119
17973
18768
19511
20855
21484
22227
22896
24005
25398
26658
28374
29749
30773
32540
32411
32185
32240
33042
32866
33436
34333
35125
35527
36191
35493
34266
32930
31595
30905
30931
30417
29235
27996
26811
26088
25065
24626
23635
22690
21976
21409
21657
20679
20079
19706
19001
18291
17610
17023
16455
15860
15359
14810
14261
13929
13542
13332
13376
13074
13744
14303
15613
16143
16940
17681
18387
19589
20929
21496
22152
22990
24319
25801
27256
28583
29911
31316
32576
33254
33471
33706
34325
34503
34852
35647
36748
37672
38039
37693
36417
35277
33727
32921
32786
31814
30379
28738
27423
27011
26307
25585
24816
23364
22603
22258
21482
21063
20754
20265
19351
18663
17995
17418
16836
16245
15699
15099
14481
14069
13815
14017
14020
13359
14253
15009
15428
16084
16917
17708
18547
19687
20626
21353
22009
22977
24163
25612
27224
28853
30489
31962
32815
34091
34806
34851
35517
36114
36716
37470
38470
39697
40113
39711
38986
37576
35750
35162
34636
32629
31381
30344
29090
28083
27067
26480
25109
23906
23625
23077
22259
21494
20932
20491
19822
19039
18291
17639
16922
16279
15748
15312
14729
14358
14356
14821
14554
13713
14629
14926
15123
15753
16656
17638
18522
19576
20473
21176
22144
23113
24087
25685
27457
29025
30916
32548
33860
34781
36148
36494
37029
37883
38636
39512
40629
41668
42122
41892
41468
39871
38082
37123
35622
34010
32658
31846
30747
29339
28095
26464
25563
25290
24289
23321
22971
22254
21358
20664
19989
19050
18429
17688
16997
16371
15941
15494
14999
14949
15221
15531
14986
13871
13875
13705
14846
15615
16448
17489
18524
19372
20288
21201
22301
23678
24549
26054
27792
29361
31099
33018
34941
35933
37289
38299
39077
39652
40593
41902
42871
43825
44514
44390
43776
41925
40672
38739
36846
35209
34322
33485
31684
30574
28940
27754
26717
25654
24569
24204
23572
22469
21586
20958
20170
19334
18569
17889
17253
16805
16392
15768
15558
15925
16157
15108
14086
13061
11896
11528
14662
15461
16379
17460
18334
19088
19912
21143
22228
23440
24799
26278
28069
29471
31434
33177
35268
36860
38333
39787
41215
41993
42990
44422
45560
46483
47216
47102
46082
43983
42449
40660
38871
37150
35906
34249
33157
32024
30088
28660
27664
26428
25634
24999
23934
22817
22057
21473
20443
19481
18750
18080
17781
17567
16948
16403
16377
16895
16797
15109
13117
11581
10325
9846
14544
15420
16321
17199
17968
18605
19632
20862
22038
23268
24674
26427
28147
29345
31400
33281
35275
37640
39561
41202
42934
44634
45454
46956
48296
49235
49829
49901
48399
46139
44658
42970
41392
39255
37632
36200
34579
32500
30663
29732
28437
27413
26927
25661
24521
23409
22341
21543
20591
19721
18943
18417
18394
18079
17423
17309
17208
17260
16857
15933
14545
13093
11165
9262
14352
15339
16082
16788
17699
18534
19569
20688
21797
23165
24655
26468
27922
29302
31349
33432
35459
37709
40167
42228
44244
46637
48167
49530
51099
52218
52734
52711
50402
48422
47118
45288
43103
40961
39356
37338
35347
33416
32050
30794
29174
28606
27642
26190
25070
23655
22570
21683
20697
19731
18895
18444
18248
17658
17541
17809
17242
16637
15937
14839
14384
13346
11985
9814
14269
15110
15874
16561
17567
18447
19434
20192
21589
22853
24472
25845
27790
29439
31328
33330
35537
37931
40286
42794
45287
47922
50650
52208
54205
55473
56059
54799
52251
51201
49248
46900
44609
42726
40596
38382
36306
34559
32715
30893
29802
28779
27654
26744
25426
23846
22526
21358
20298
19307
18478
17554
17052
16682
17299
17655
16779
15464
14362
13232
13072
12463
11353
10031
14018
14774
15478
16503
17301
18150
19149
20164
21082
22171
23648
25077
26872
28874
30985
33193
35479
38091
40751
43446
46168
48957
52102
54903
56949
58973
58821
56815
55255
53329
50794
48425
45981
43348
40912
38613
36478
34827
33188
31461
30013
28394
27075
25749
24687
23585
22400
21043
20263
19088
18278
17376
16393
15751
16238
16443
15582
14390
13081
12052
11899
11646
10322
9664
13627
14273
15184
16122
17055
17973
19223
20740
21377
22071
23236
24782
26482
28479
30734
33000
35448
38080
40993
44141
47341
50618
53832
56693
59445
61662
61175
59410
56974
54438
51638
48864
45983
43351
40966
38749
36696
34877
33357
31728
30294
28564
27263
25889
24550
23149
21893
20736
19708
18756
17716
16875
16030
15236
14757
14797
14218
13367
12174
11170
10557
10416
9784
8857
13062
13869
14738
15880
16906
18128
19662
21356
21500
21961
22877
24501
26137
28342
30682
32853
35246
37939
41022
44155
47526
50858
54125
57737
61129
61648
61035
61052
58250
55210
51878
48922
46160
43580
41230
38959
36780
34845
33055
31272
29720
28410
27141
25771
24257
23032
21826
20564
19463
18551
17516
16405
15622
15043
14266
13621
13061
12415
11783
10953
10040
9371
9037
8517
12933
13909
14773
15785
16925
17968
18510
19455
20634
21154
22316
24002
25931
28141
30120
31991
34321
36933
39852
42928
45838
48954
52859
57467
61216
60945
60319
61280
58146
54866
51537
48721
46100
43531
40986
38641
36497
34642
33143
31521
29888
28333
26906
25530
24227
22949
21736
20549
19439
18401
17255
16163
15157
14593
14008
13385
12797
12169
11464
10841
10226
9499
9042
8513
12988
13853
14799
15690
16817
17317
18210
18957
19836
20744
21902
23420
24984
27015
29268
31590
34267
37116
40087
43289
46751
50501
54076
57770
61138
61936
61643
60093
57224
54054
51108
48170
45613
43212
40759
38488
36402
34528
32627
30988
29440
27979
26401
24974
23654
22499
21344
20248
19174
18134
16934
16034
15331
14394
13588
13120
12453
11870
11266
10678
10100
9609
9108
8656
12797
13644
14375
15348
16257
16903
17691
18387
19361
20377
21581
23179
24810
26781
28955
31193
33772
36686
39944
43185
46459
49715
52972
56216
58679
59299
58818
57672
55840
53262
50610
48148
45518
43032
40584
38447
36344
34308
32292
30380
28872
27325
25940
24725
23254
21906
20859
19818
18748
17852
16935
16164
15095
14280
13471
12723
12291
11695
11044
10497
10060
9589
9165
8622
12615
13511
14214
15193
15741
16498
17544
18343
19024
20308
21590
22982
24625
26564
28817
31267
33794
36669
39843
42532
45259
48292
51325
53943
55691
56070
55990
55467
54100
51990
49650
47340
45161
42854
40608
38254
35899
33763
31863
30079
28136
26612
25324
24068
22892
21601
20442
19188
18217
17419
16608
15816
14895
13951
13186
12605
12128
11529
11075
10533
10001
9499
8969
8516
12598
13531
14175
14998
15760
16470
17149
17937
18709
19980
21251
22705
24421
26264
28382
30524
33155
35884
38604
40973
43661
46371
48889
51096
52567
52998
53074
52938
51935
50651
48771
46545
44148
41984
39787
37448
35288
33092
31149
29369
27600
26278
24963
23740
22520
21412
20322
19100
18085
17174
16277
15534
14795
14021
13338
12693
11911
11236
11014
10517
9911
9510
9045
8501
12327
13293
13930
14543
15237
15872
16756
17781
18840
19739
20986
22876
24498
26189
27898
30130
32187
34357
36754
39192
41737
44189
46436
48380
49456
49439
49977
49840
48969
46985
45674
44659
43204
41016
39079
36885
34768
32631
30695
29148
27480
25988
24598
23361
22027
20819
19896
18928
18026
17083
16070
15300
14673
13998
13399
12706
12091
11436
10883
10335
9842
9342
8854
8439
12210
12927
13504
14138
14847
15538
16601
17626
18468
19563
20977
22816
24403
25919
27566
29293
31049
32895
35256
37418
39821
41923
43821
45404
46331
46567
46962
47146
45954
43977
42325
41747
42399
41083
38898
36762
34599
32511
30160
28374
26968
25535
24146
22923
21828
20449
19398
18754
18045
17094
16106
15288
14631
13905
13141
12571
12032
11467
10964
10512
9874
9489
8982
8430
11727
12559
13362
14050
14456
15202
16249
17214
18293
19343
20672
22369
23772
25241
27039
28430
29914
31742
33586
35462
37684
39707
41427
42686
42972
43540
43954
44273
43592
41248
39345
39777
41578
41168
38758
36398
34105
31834
29705
27694
26232
25105
23701
22432
21399
20192
19083
18132
17529
16656
15905
15260
14530
13764
12883
12333
11937
11541
11054
10467
9957
9489
8837
8396
11261
12137
12828
13454
14199
14851
15753
16749
17936
19095
20450
21560
22784
24312
25888
27234
28752
30344
32119
33909
36119
37479
39048
40032
40336
40778
41515
41560
41025
40058
37939
38946
40782
39818
37893
35782
33487
31038
29246
27331
25763
24690
23601
22356
21179
20070
18982
18043
17232
16467
15669
15036
14347
13513
12770
12223
11759
11144
10735
10228
9840
9268
8753
8419
10990
11788
12404
13154
13702
14573
15549
16396
17444
18701
19896
20862
21946
23150
24761
26349
27760
29206
30607
32168
34265
35486
36490
37695
37334
38174
38858
38979
38681
38226
37307
36864
37748
37644
36282
34608
32477
30426
28617
27201
25781
24540
23463
22350
21261
20312
19158
18047
17061
16131
15488
14790
14090
13240
12558
12034
11561
10918
10403
9943
9535
8986
8331
8061
10520
11197
12112
12603
13495
14175
15168
16013
17055
18273
19150
20021
20806
22100
23216
25048
27064
27899
28888
30317
32194
33221
34153
34969
34963
35447
36406
36849
36503
35760
36166
35155
35590
34892
34094
32757
31143
29344
27869
27029
25788
24476
23235
22105
21016
19987
18958
17987
17111
16182
15389
14718
14103
13209
12301
11814
11236
10587
9978
9565
9242
8743
8166
7739
10073
10779
11514
12358
13102
13775
14594
15653
16693
17598
18275
18908
19501
20827
21861
23317
25187
26568
27365
28655
30230
31280
32082
32295
32693
33213
34258
34878
34246
33319
34132
34385
33027
32913
32190
31192
29588
27978
26954
27272
26082
24956
23439
22015
21078
19998
18740
17857
16988
16107
15452
14753
13983
13392
12534
11822
11230
10408
9800
9313
8910
8551
8089
7598
9755
10605
11155
11880
12415
13393
14307
15304
16340
16899
17381
18144
18872
19764
20726
22395
24340
25473
26261
27172
28237
29131
29997
29411
30143
31306
32458
33159
32086
31318
31749
32857
32311
31923
30483
29916
28085
26653
25831
25581
24920
24839
23825
22304
21124
20082
18761
17352
16703
15940
15292
14626
13935
13222
12661
12054
11305
10301
9582
9086
8632
8230
7842
7409
9375
10068
10714
11313
12146
13095
13773
14747
15608
16269
17009
17558
18395
19066
20162
21541
23102
24279
24859
25493
26404
26816
27539
27608
28635
29653
30777
31609
30629
29690
29807
30664
31001
30362
29185
28466
27609
25904
24942
24419
23891
23165
22562
21740
20638
19694
18671
17391
16305
15437
14822
14232
13714
13057
12500
12103
11513
10435
9463
8982
8452
8098
7572
7184
9262
9749
10153
10916
11831
12473
13242
14182
15008
15831
16659
17404
17961
18268
19408
20353
21535
23021
23958
24473
24939
25277
25631
26309
27205
28043
28648
29261
29079
28428
28402
28782
28797
28792
28247
27035
27001
25676
24286
23653
22965
22215
21434
20923
20061
19101
18511
17202
16068
15114
14353
13827
13388
12859
12273
11700
11064
10258
9600
8828
8257
7914
7466
7099
8748
9419
10062
10733
11277
11961
12984
13896
14651
15217
15973
16659
17359
17700
18489
19587
20781
22151
22971
23299
23642
23962
24701
25424
26371
26444
26791
27071
27045
27025
27229
27342
27149
27341
27334
25984
25332
24433
23542
22863
21620
20829
20500
19972
19334
18479
17712
16893
16343
15238
14287
13517
12969
12425
11854
11168
10808
10296
9578
8957
8415
7738
7314
6809
8500
9083
9776
10359
11124
11613
12587
13373
14001
14787
15528
16146
16843
17570
18405
19230
20252
21085
21554
22407
23341
23843
24373
24806
25538
25203
25121
25118
25504
25888
25944
25573
25537
26089
26313
25101
24377
23615
22779
22194
20806
19836
19569
18945
18388
17727
17217
16943
16745
15367
14041
13308
12669
11988
11452
10731
10313
9928
9383
8862
8234
7603
7079
6530
8128
8889
9331
9954
10658
11202
11848
12836
13630
14449
15251
15652
16316
17556
17963
18614
19193
20026
21254
21874
22742
23475
23940
24192
24357
24034
23836
23645
24320
24626
24581
24639
24207
24553
24696
24072
23638
23002
22255
21626
20585
19332
18679
18193
17496
16984
16611
16017
15269
14435
14155
13474
12206
11557
11115
10489
9936
9433
9006
8532
7909
7372
6810
6314
7664
8482
8928
9481
10022
10714
11321
12058
12729
13678
14353
14867
15477
16621
17405
17692
18492
19425
20584
21366
22179
22781
23374
23813
23407
22855
22785
22588
23015
23503
23494
23786
23595
23427
23224
22999
22828
22298
21468
20701
20054
19098
18371
17614
16990
16320
15788
15223
14602
13949
13545
13213
12147
11470
10897
10401
9837
9244
8835
8365
7939
7409
6803
6367
7128
7531
8519
9188
9627
10174
10985
11499
12044
12825
13592
14280
15253
15968
16376
16984
17750
18812
19775
20588
21074
21931
22466
22778
22427
22017
22002
21763
22019
22682
22868
22967
22794
22711
22505
22108
21867
21365
20618
20155
19448
18804
18070
17646
16932
16200
15627
15095
14494
13696
13272
12883
12016
11395
10840
10158
9632
9128
8675
8230
7707
7112
6667
6270
6584
6884
7751
8407
8998
9629
10163
10724
11372
12004
12853
13711
14498
15185
15929
16444
17231
18177
18859
19672
20130
20713
20948
21124
21052
20924
20776
20728
20895
21291
22160
22000
21986
22010
21674
21148
20724
20385
19830
19548
18947
18293
17683
17340
16797
16560
15414
14532
14010
13554
13029
12610
11977
11397
10972
10179
9416
8920
8506
7997
7394
6896
6527
6138
6313
6782
7396
7833
8428
9026
9258
10057
10749
11449
12144
13163
13933
14612
15476
15837
16520
17303
18206
18569
19033
19459
19627
19405
19393
19420
19337
19553
19851
20391
21085
21266
21125
20958
20918
20365
19805
19873
19561
19094
18796
18063
17475
16830
16378
15859
14866
14080
13553
13261
12591
12012
11692
11225
10751
10311
9506
8738
8300
7850
7230
6764
6427
6071
5837
6360
6889
7388
7989
8474
8762
9350
10079
10709
11564
12598
13225
13889
14607
14914
15472
16316
16985
17440
17840
18048
18286
18214
18105
18267
18469
18979
19122
19782
20351
20592
20411
20387
20696
20322
19401
19365
19117
18854
18945
18005
17282
16653
15994
15478
14834
14023
13203
12849
12015
11597
11192
10955
10699
10154
9610
8553
7965
7607
6869
6602
6475
6039
5134
5950
6395
6912
7484
7913
8433
8852
9483
10177
11096
12132
12676
13264
13828
14190
14676
15304
15844
16432
16783
17018
17088
17230
17115
17253
17588
18169
18486
19128
19328
19683
19686
19923
19835
19321
18979
19144
18996
18828
18647
18093
16677
16248
15769
15182
14608
13903
13188
12470
11852
11196
10885
10824
10675
10039
9473
8692
7828
7266
6642
6477
6300
5981
4977
5590
6129
6473
6847
7498
8047
8442
9010
9538
10604
11422
12166
12663
12960
13413
14008
14631
15401
15799
15899
15949
16083
16164
16135
16593
16949
17231
17597
18153
18272
18626
19021
19293
18979
18756
18746
18875
18743
18100
17288
17271
15927
15598
15384
14886
14252
13548
12941
12306
11516
11045
10646
10591
10410
10052
9355
8411
7615
7069
6490
6099
5961
5693
4843
5193
5624
5922
6529
6968
7493
7804
8450
9262
10179
10770
11239
11663
12326
12846
13494
14218
15009
15385
15681
15429
15329
15218
15355
15943
16251
16679
17059
17299
17588
17942
18366
18579
18657
18485
18540
18614
18099
17569
16674
16092
15443
15118
14800
14244
13541
13136
12646
11938
11211
10759
10449
10117
9509
9736
9313
8172
7137
6775
6420
6065
5791
5533
4572
4868
4998
5278
5838
6295
6902
7253
8043
8735
9441
9792
10326
10869
11599
12237
12710
13510
14139
14646
15044
15003
14768
14562
14765
15276
15579
15971
16424
16647
17034
17511
17841
18201
18097
18400
18157
18155
17870
17438
16487
15839
14973
14549
14119
13542
12965
12562
12001
11521
10988
10650
10333
9708
9052
9128
8593
7642
7058
6667
6306
5938
5742
5493
4332
4397
4460
4672
4987
5697
6028
6602
7516
8038
8606
9161
9629
10403
10908
11394
11990
12609
13294
13809
14186
14438
14195
14047
14108
14321
14713
15124
15700
16223
16594
17039
17353
17357
17080
17489
17608
17430
17326
16991
16186
15510
14834
14585
13663
13114
12616
12026
11685
11426
10989
10583
9883
9428
8808
8422
7993
7402
6961
6572
6252
5981
5903
5699
3972
4032
4026
3927
4340
5103
5447
5855
6799
7859
8407
8750
9115
9841
10368
10503
11222
12077
12658
13034
13196
13444
13404
13587
13764
13844
14176
14402
14851
15466
15706
16004
16403
16380
16299
16505
16783
16934
16577
16214
15745
15086
14620
14411
14083
13088
12082
11601
11526
11213
10882
10375
9715
9208
8745
8346
7838
7474
6990
6543
6154
5968
5848
5576
3168
3205
3369
3569
3953
4420
5169
5653
6340
7390
7841
8197
8727
9277
9565
10129
10816
11594
11998
12334
12426
12510
12791
13012
13230
13274
13388
13830
14343
14754
14884
15114
15329
15497
15602
15691
15743
15692
15401
15211
14861
14604
15427
15155
14897
13042
11660
11429
11368
11119
10788
10293
9647
9102
8629
8211
7875
7429
6955
6585
6143
5770
5514
5415
2528
2634
2890
3289
3565
4132
4891
5297
5765
6872
7220
7557
8018
8600
9097
9642
10110
10795
11398
11986
11879
11968
12283
12584
12594
12762
12855
13252
13824
13975
14253
14335
14469
14650
14843
14907
14806
14690
14579
14266
14080
13772
14277
13833
13308
12024
11249
11453
11618
11396
10662
10147
9542
8965
8509
8014
7670
7327
7076
6664
6148
5717
5395
5069
1947
2222
2622
2779
3131
3794
4504
5062
5780
6384
6734
7038
7466
8048
8521
8785
9740
10525
10715
11454
11584
11778
11736
11953
12027
12077
12301
12763
13275
13450
13612
13585
13746
14018
14090
14030
14141
13987
13727
13459
13427
13014
13117
12749
12182
11302
10896
11109
11745
11254
10432
9816
9305
8766
8343
7927
7563
7218
6988
6459
6150
5679
5256
4890
1538
1974
2252
2438
2495
3200
3963
4647
5476
5884
6250
6573
6964
7400
7675
8333
9188
9799
10295
10859
11478
11190
11288
11263
11380
11546
12032
12354
12621
12777
12947
13023
12955
13092
13410
13344
13315
13312
13037
12890
12824
12500
12257
12203
11692
11029
10695
10931
11077
11150
10306
9680
9149
8696
8252
7890
7487
7100
6878
6508
6091
5723
5201
4821
1370
1669
1615
1835
2278
3017
3523
4313
5018
5287
5517
5749
6137
6698
7113
7834
8544
9091
9680
10246
10675
10778
11058
10769
10734
10882
11135
11399
11818
12048
12067
12304
12388
12565
12390
12450
12531
12655
12372
12450
12183
11915
11770
11610
11189
10840
10416
10516
10752
10620
10074
9487
8942
8625
8119
7725
7428
6972
6659
6436
6000
5616
5162
4924
