P2
# Created by GIMP version 2.10.8 PNM plug-in
64 64
255
151
136
118
110
125
177
202
174
179
197
172
159
164
133
125
146
166
184
177
146
110
100
87
118
128
97
118
184
207
197
154
92
49
61
95
118
141
154
184
195
166
125
125
141
174
205
187
110
100
159
187
169
159
146
110
118
125
84
61
56
110
200
218
177
154
151
128
90
87
125
156
141
156
164
118
102
125
146
159
177
174
156
133
133
133
125
118
110
95
69
92
133
151
154
133
72
33
49
84
118
159
187
190
177
166
136
118
128
166
184
179
151
138
154
151
133
118
100
69
84
102
92
77
64
100
174
210
195
133
128
125
90
84
107
118
115
128
128
90
77
100
133
149
164
156
143
133
133
143
141
125
105
74
69
84
100
125
133
120
84
69
105
138
156
174
177
177
172
151
118
105
128
159
174
174
151
118
92
79
74
84
105
102
115
146
151
118
92
118
154
184
177
128
125
136
115
110
115
107
125
138
120
87
92
102
125
149
159
156
156
159
156
164
169
138
97
84
110
120
115
120
118
125
118
110
141
166
166
149
125
125
149
136
100
105
149
151
146
149
136
95
59
64
79
105
125
125
133
164
177
156
125
125
133
149
156
169
169
159
138
138
133
120
133
125
92
66
95
118
133
172
179
174
156
143
143
156
164
136
118
125
141
138
118
102
102
133
138
133
156
174
166
141
115
118
133
128
110
125
172
166
128
118
128
125
87
84
118
138
133
133
151
159
154
141
118
125
133
128
138
215
197
149
125
141
143
133
125
102
87
87
120
125
118
143
166
166
125
84
72
87
102
107
133
151
159
159
133
110
110
136
141
154
172
159
146
154
146
151
156
141
115
118
166
187
154
125
128
149
133
125
151
154
136
149
174
166
125
100
102
138
149
136
151
218
202
138
100
90
102
118
107
102
125
141
151
110
77
77
125
156
133
84
54
59
84
110
136
151
177
187
159
136
136
133
125
156
159
118
118
151
151
141
141
120
95
110
151
166
141
118
118
128
133
143
164
154
138
133
151
146
102
74
102
156
156
133
146
177
192
151
90
69
97
133
146
154
154
133
128
100
77
74
118
164
166
154
133
100
90
125
151
169
195
197
174
156
154
146
138
166
164
115
110
149
151
120
92
74
87
118
138
125
110
105
110
105
84
107
149
146
128
110
125
125
110
95
125
156
133
110
118
118
151
125
84
84
125
166
190
195
156
110
125
125
133
120
128
159
166
174
164
133
100
118
146
177
197
192
179
149
151
177
179
182
177
136
133
159
156
125
95
72
100
125
125
107
100
118
136
136
110
107
133
133
120
102
138
154
143
133
156
143
110
102
105
146
133
100
72
100
143
151
164
169
146
125
146
151
154
128
133
164
169
154
141
133
97
84
100
141
177
192
179
133
141
184
174
159
166
143
149
164
159
149
151
141
151
151
133
110
92
118
156
166
141
125
133
133
115
110
159
174
164
159
166
133
107
118
146
169
138
110
90
118
133
90
97
125
143
164
174
154
133
118
133
156
164
136
118
110
84
72
77
110
151
166
154
105
102
143
136
146
177
172
172
174
159
143
169
174
172
154
133
136
110
118
151
166
141
115
118
110
90
107
159
159
156
164
177
143
97
100
149
177
166
146
128
159
141
74
69
107
143
184
202
166
110
100
107
118
128
110
84
77
77
77
90
118
159
159
151
115
84
92
92
136
187
205
200
190
164
143
169
179
179
151
138
164
156
149
164
182
166
136
105
69
46
92
164
169
164
169
190
154
90
84
133
174
195
174
146
166
143
90
84
118
133
164
197
172
118
100
87
87
97
100
77
74
92
107
118
136
172
179
182
156
100
77
87
143
177
192
190
159
136
141
172
190
187
149
133
156
166
177
177
177
172
159
125
84
61
100
149
159
151
156
182
164
120
118
128
177
184
159
128
138
125
95
90
125
128
133
154
156
125
110
107
107
102
125
125
102
110
133
125
118
141
164
195
192
143
115
118
151
156
169
172
133
110
133
159
179
177
141
133
146
159
174
159
156
156
138
118
92
84
97
102
125
141
128
151
164
164
164
143
164
143
110
84
79
79
90
105
136
143
125
118
146
146
141
143
136
136
154
146
128
149
166
141
100
90
110
166
195
159
120
115
143
154
177
177
138
115
125
118
133
141
120
125
125
141
151
149
149
156
128
102
92
100
100
79
100
125
125
133
151
166
182
166
118
107
100
74
66
87
125
164
177
172
136
100
125
151
159
156
146
156
151
118
120
143
154
143
110
84
100
146
166
128
79
100
143
166
192
192
159
136
125
97
107
138
136
125
118
120
120
120
125
159
151
107
95
115
120
95
84
102
125
138
154
172
174
141
97
92
110
110
102
100
125
177
207
207
169
100
90
133
146
141
136
154
151
118
118
125
118
115
120
100
105
151
169
136
97
110
136
154
182
190
166
151
133
115
120
159
166
136
115
125
128
128
133
166
151
100
90
125
159
136
110
115
120
128
151
159
138
87
125
120
133
133
125
92
100
159
202
218
190
110
87
118
118
105
102
118
133
102
87
105
95
102
141
128
125
172
190
159
125
125
133
138
166
174
164
151
128
110
125
159
184
166
118
107
128
146
159
190
169
110
90
118
159
151
125
120
118
125
125
136
120
74
125
125
138
149
128
92
100
136
151
172
177
133
118
133
128
115
110
105
118
87
72
100
115
128
164
146
133
172
177
164
141
146
138
110
125
159
159
141
102
84
100
151
184
177
141
102
95
105
141
182
197
154
100
105
138
146
133
115
118
128
133
146
136
102
105
100
141
169
151
115
102
100
90
118
169
164
146
146
141
138
125
110
118
110
100
110
133
151
159
143
151
156
133
136
125
154
159
100
84
133
143
125
100
92
87
118
143
151
146
107
74
79
118
141
182
174
120
118
125
125
136
125
125
146
154
166
151
118
128
110
154
187
190
177
151
118
97
125
179
177
146
136
118
115
125
128
143
128
110
95
100
125
128
125
141
138
115
125
125
154
174
110
74
110
120
128
138
133
118
118
120
118
125
100
77
84
95
97
136
154
133
143
128
100
120
125
133
154
174
195
174
141
146
125
149
174
192
200
179
151
128
143
166
159
133
102
74
84
133
166
169
136
115
84
72
84
97
110
125
128
133
138
136
172
184
125
84
97
84
107
125
128
128
138
125
107
110
110
110
87
79
92
118
138
146
141
118
87
105
133
159
174
179
200
200
179
146
125
133
151
164
177
166
159
159
159
125
100
95
72
69
100
136
174
179
154
120
92
84
87
97
120
118
118
125
107
102
156
172
118
90
74
54
90
105
115
138
151
141
125
125
125
120
92
100
138
159
177
177
143
118
97
100
141
169
172
166
182
179
159
136
133
136
146
138
166
166
156
164
166
118
84
95
97
105
120
133
174
179
136
105
107
118
128
151
154
115
90
102
107
110
154
166
125
100
87
79
100
105
118
133
133
125
146
159
143
128
105
110
169
213
218
205
172
149
133
125
138
151
149
149
166
151
107
151
141
133
141
136
172
177
151
151
172
151
110
118
125
115
105
133
172
164
110
105
143
151
149
156
146
118
92
120
166
192
202
190
151
125
125
105
84
77
84
95
102
100
125
156
149
149
128
120
182
218
205
182
179
172
141
120
118
136
143
125
125
120
100
118
115
105
128
156
197
195
151
136
156
151
125
128
141
110
90
118
149
136
115
133
159
146
136
120
107
118
128
159
202
218
218
179
149
128
133
118
92
87
87
74
90
110
118
136
146
166
156
141
187
205
169
143
166
166
125
115
110
125
154
128
97
118
151
77
97
100
115
151
177
174
149
125
120
120
120
133
136
102
92
115
125
110
100
110
110
84
84
95
100
118
151
169
187
192
190
159
128
120
125
136
133
120
120
90
79
110
125
133
151
166
151
136
177
200
166
133
141
138
110
133
120
100
133
128
100
125
177
77
97
100
102
125
125
115
128
136
118
105
125
151
151
110
115
133
141
133
100
77
49
25
49
100
133
143
151
159
164
151
151
141
125
128
143
154
146
118
138
133
100
110
115
125
149
156
138
125
149
164
136
107
110
120
118
151
128
92
125
125
102
133
166
118
118
115
125
133
118
97
118
141
141
133
156
169
151
105
105
136
159
159
133
110
77
54
77
133
174
166
138
143
156
146
133
125
120
125
159
182
166
120
133
146
118
118
125
133
133
141
133
125
125
133
110
74
77
100
110
151
141
115
138
120
105
143
164
166
141
120
118
120
128
133
151
166
151
149
159
156
133
105
100
115
143
154
149
146
151
138
125
156
184
159
110
105
125
133
136
146
141
133
159
187
169
125
105
105
92
102
125
133
118
125
138
138
133
133
115
77
77
102
118
146
138
125
143
115
100
128
133
156
125
100
77
84
118
146
166
174
151
133
125
138
143
138
133
118
110
118
141
151
174
182
166
172
184
172
120
97
125
133
136
169
182
177
179
182
151
100
72
72
77
110
136
143
136
151
166
159
125
100
97
77
84
125
125
125
107
110
136
118
110
125
125
146
118
97
77
84
115
125
136
164
156
125
107
125
151
177
177
151
105
84
120
141
149
159
159
159
169
179
154
133
151
146
149
179
192
184
184
184
164
125
100
92
105
133
151
151
146
164
172
156
102
79
97
77
87
118
105
100
110
128
136
125
133
159
174
146
125
107
107
110
118
105
100
141
174
156
125
110
133
182
190
166
118
100
120
125
118
115
90
92
125
151
138
133
143
143
154
156
151
143
146
166
177
156
138
125
120
115
125
143
151
151
149
143
107
115
141
125
118
128
118
125
151
156
125
105
125
159
169
154
143
120
110
115
125
100
72
84
143
151
128
92
102
159
174
169
136
118
118
125
125
100
46
61
107
125
118
125
125
133
125
102
84
84
110
164
169
136
125
110
97
97
125
146
149
146
136
159
159
166
169
143
136
133
118
133
149
136
120
118
128
128
100
128
138
125
100
100
125
118
90
84
110
125
128
92
87
125
151
169
154
118
107
120
125
102
77
84
90
92
110
133
159
156
115
92
84
87
138
177
166
125
115
100
97
110
133
138
128
133
143
177
192
184
172
156
151
133
105
120
128
100
95
120
120
102
84
128
149
133
100
90
125
141
133
125
107
115
146
125
105
102
125
172
177
136
110
118
102
105
125
110
72
59
110
164
184
166
125
125
125
125
149
141
133
120
110
120
133
141
149
125
110
128
159
179
177
149
133
146
146
115
95
125
136
95
72
115
136
125
125
149
156
118
77
87
125
149
136
125
97
102
151
156
159
151
143
164
166
125
118
110
90
118
149
125
87
92
151
187
169
143
125
146
143
138
133
107
105
110
125
141
146
138
136
118
115
154
192
200
177
133
110
128
133
118
100
110
120
100
72
105
149
154
159
136
159
133
95
118
151
159
151
120
79
79
102
118
166
184
166
164
159
141
133
100
90
143
166
136
118
125
177
200
159
120
118
133
125
105
118
125
120
133
151
159
143
120
100
118
149
182
205
202
182
146
141
151
156
166
151
118
118
118
90
95
115
133
159
92
151
159
138
166
187
187
182
143
92
84
84
100
159
190
190
190
182
169
159
125
110
154
169
141
125
141
179
200
164
110
100
100
92
92
128
146
128
141
151
146
133
107
69
79
133
166
187
195
200
179
177
184
182
205
200
159
133
110
97
100
92
125
146
92
125
143
164
200
197
174
169
136
100
120
138
149
177
179
192
197
174
151
169
169
146
143
136
110
102
128
166
184
159
97
74
90
107
133
166
154
125
141
138
125
120
110
77
54
87
133
166
179
195
177
164
166
159
179
190
172
141
102
110
120
110
146
154
133
118
118
151
177
164
120
110
107
107
138
172
187
182
151
151
164
149
133
151
154
125
118
120
110
77
79
128
172
159
87
41
74
115
141
164
149
141
166
169
146
118
118
100
72
77
110
136
151
169
146
133
128
118
125
146
164
151
128
143
154
151
164
154
154
151
133
136
138
118
84
90
100
100
118
156
184
179
133
90
100
110
118
107
100
100
125
156
138
77
61
110
159
156
102
72
102
125
133
138
141
149
154
164
166
151
125
102
107
107
110
133
159
166
118
97
90
84
97
110
151
164
151
133
133
143
138
110
164
172
151
136
125
118
120
146
149
141
141
159
177
179
133
72
59
92
133
118
84
100
156
195
159
97
102
159
182
164
146
146
149
146
151
138
141
154
141
151
174
169
143
118
115
120
125
143
166
172
125
87
77
87
102
100
128
149
146
118
84
100
125
110
125
159
156
149
136
141
166
179
174
179
177
159
154
169
149
105
87
118
172
166
136
146
184
200
169
125
151
192
182
159
159
166
154
156
159
138
138
169
172
159
136
133
141
110
100
115
120
107
125
151
125
90
97
125
125
97
102
118
133
138
97
77
110
125
100
133
141
166
169
164
164
151
143
166
159
141
146
164
141
110
118
149
177
177
169
174
179
184
172
159
164
159
120
105
125
149
141
146
154
125
118
151
172
154
110
100
110
92
84
97
97
72
79
105
87
79
107
128
128
120
136
143
143
164
120
72
100
159
72
92
125
177
184
166
133
110
125
136
125
136
151
146
115
97
107
133
151
169
187
179
159
164
166
154
136
118
97
102
125
141
118
110
110
87
97
100
120
149
156
138
102
79
84
92
87
66
72
79
59
77
110
118
125
154
182
177
164
164
118
74
95
149
51
84
125
154
151
149
141
133
120
100
77
105
125
128
125
107
120
146
151
174
200
177
149
128
128
125
118
97
90
118
146
151
102
74
72
84
100
72
77
118
172
187
143
105
118
138
133
110
120
118
69
77
125
128
118
151
177
182
177
151
125
128
125
107
84
118
120
110
105
133
156
151
110
74
72
90
133
151
143
110
125
146
151
169
174
156
156
138
118
120
128
95
79
115
156
177
133
87
95
125
120
95
84
84
120
166
154
115
118
146
159
154
156
156
110
95
128
143
136
138
136
159
177
154
138
164
159
128
110
133
105
92
92
107
118
125
107
84
95
110
149
159
143
110
110
107
110
133
125
120
159
156
110
97
118
102
92
125
143
164
156
125
133
141
141
128
110
90
90
133
154
120
100
125
151
149
133
143
151
143
133
143
143
125
107
146
190
192
166
159
164
159
100
115
100
105
125
118
79
77
92
84
100
115
128
133
133
110
100
84
74
90
102
118
164
151
95
72
84
105
102
125
136
136
138
138
133
146
172
159
133
125
118
128
146
118
72
79
115
110
84
100
151
166
151
143
138
133
125
149
184
200
172
138
146
159
56
77
84
102
133
120
84
72
77
90
100
100
118
133
128
115
102
77
54
79
133
156
166
151
133
118
107
120
120
141
154
136
125
133
128
143
177
166
141
154
146
118
115
125
102
87
87
79
74
95
149
156
136
133
133
141
125
118
141
159
146
125
133
146
84
87
90
107
136
141
133
125
125
143
138
128
141
149
141
143
146
118
72
92
154
169
141
110
125
159
149
125
128
149
146
125
138
169
169
154
166
164
143
141
115
72
90
146
164
151
125
110
97
102
146
138
105
105
125
141
110
79
87
95
110
128
146
146
151
115
100
133
177
184
164
143
172
182
151
133
143
159
159
156
159
151
115
120
166
164
118
84
100
154
156
133
149
151
125
107
143
184
200
177
151
128
115
105
84
61
95
156
187
187
169
151
105
90
133
136
95
77
100
115
87
84
92
97
118
143
151
146
179
125
105
128
172
190
166
138
159
166
120
97
133
182
190
164
143
156
141
151
179
169
146
118
105
136
125
100
133
133
100
100
136
174
184
166
120
84
87
100
90
84
118
154
169
172
172
159
105
95
133
138
92
74
102
107
87
115
136
141
125
128
154
151
177
156
133
128
133
146
154
141
133
118
77
77
151
205
202
166
151
159
143
151
172
166
156
151
136
138
102
74
120
133
105
110
149
169
169
138
100
79
90
110
120
128
128
125
118
125
146
141
110
107
125
141
115
115
136
141
136
143
146
138
95
74
120
141
141
164
151
125
110
115
125
118
118
118
95
100
159
187
156
118
125
146
156
164
164
156
159
182
182
159
102
69
107
136
133
159
172
154
166
149
110
110
110
118
136
143
107
79
84
105
118
115
107
87
92
125
141
154
159
149
146
136
115
110
90
59
97
118
118
128
128
125
125
133
125
102
128
166
156
133
149
151
105
64
74
118
149
141
133
143
154
184
192
159
100
72
115
151
151
177
172
149
166
164
138
136
133
151
164
149
102
77
84
84
97
105
110
84
84
102
125
151
159
151
149
125
84
92
102
92
125
146
133
110
95
125
149
151
133
102
133
177
177
146
138
143
110
69
97
146
143
110
105
128
151
159
151
136
102
90
125
143
125
149
159
159
159
154
141
143
151
182
197
177
146
133
125
84
97
125
125
118
128
133
143
159
151
143
149
125
79
74
77
84
125
159
166
110
66
102
151
151
136
100
100
146
166
143
133
156
138
97
133
179
177
146
110
118
149
154
141
146
143
133
125
118
110
133
143
146
151
154
151
143
149
184
205
192
174
166
151
118
125
138
128
136
156
151
138
141
128
128
143
133
97
61
51
79
118
136
156
115
97
125
151
146
143
118
105
133
149
136
138
164
159
136
164
197
205
182
125
105
146
169
159
151
149
156
146
118
120
125
120
115
136
164
156
136
125
156
184
166
154
172
166
136
125
136
133
125
125
120
118
125
128
133
136
133
118
77
87
151
177
177
141
138
154
164
151
149
136
120
110
125
128
125
128
159
179
179
195
210
207
172
110
79
143
177
159
136
118
149
166
149
128
120
118
100
125
164
143
107
97
115
141
118
115
154
159
136
118
118
125
118
110
125
141
141
133
118
105
110
110
102
146
200
215
213
125
133
151
164
151
138
107
107
118
118
118
105
110
146
184
195
190
200
197
166
118
100
151
166
149
151
141
149
172
159
138
143
133
118
143
169
136
110
120
118
125
115
100
125
136
143
125
105
118
143
159
151
143
143
120
79
61
77
115
156
184
190
200
205
110
118
133
159
154
125
84
87
125
125
120
118
118
138
174
190
166
159
154
141
125
136
164
138
120
156
164
159
159
141
146
172
149
125
166
200
190
177
179
166
169
164
118
97
125
149
133
107
102
151
182
156
118
110
79
59
69
95
138
179
190
164
169
174
100
133
172
187
166
141
87
46
72
84
110
125
133
159
182
177
133
107
77
64
97
143
154
110
95
151
177
182
174
166
192
213
172
141
179
207
218
218
215
195
200
195
136
102
146
177
159
115
74
120
154
133
107
72
20
23
77
146
174
197
200
159
125
92
