P2
# CREATOR: GIMP PNM Filter Version 1.1
64 64
255
77
71
64
61
67
87
97
86
88
95
85
80
82
70
67
75
83
90
87
75
61
57
52
64
68
56
64
90
99
95
78
54
37
42
55
64
73
78
90
94
83
67
67
73
86
98
91
61
57
80
91
84
80
75
61
64
67
51
42
40
61
96
103
87
78
77
68
53
52
67
79
73
79
82
64
58
67
75
80
87
86
79
70
70
70
67
64
61
55
45
54
70
77
78
70
46
31
37
51
64
80
91
92
87
83
71
64
68
83
90
88
77
72
78
77
70
64
57
45
51
58
54
48
43
57
86
100
94
70
68
67
53
51
60
64
63
68
68
53
48
57
70
76
82
79
74
70
70
74
73
67
59
47
45
51
57
67
70
65
51
45
59
72
79
86
87
87
85
77
64
59
68
80
86
86
77
64
54
49
47
51
59
58
63
75
77
64
54
64
78
90
87
68
67
71
63
61
63
60
67
72
65
52
54
58
67
76
80
79
79
80
79
82
84
72
56
51
61
65
63
65
64
67
64
61
73
83
83
76
67
67
76
71
57
59
76
77
75
76
71
55
41
43
49
59
67
67
70
82
87
79
67
67
70
76
79
84
84
80
72
72
70
65
70
67
54
44
55
64
70
85
88
86
79
74
74
79
82
71
64
67
73
72
64
58
58
70
72
70
79
86
83
73
63
64
70
68
61
67
85
83
68
64
68
67
52
51
64
72
70
70
77
80
78
73
64
67
70
68
72
102
95
76
67
73
74
70
67
58
52
52
65
67
64
74
83
83
67
51
46
52
58
60
70
77
80
80
70
61
61
71
73
78
85
80
75
78
75
77
79
73
63
64
83
91
78
67
68
76
70
67
77
78
71
76
86
83
67
57
58
72
76
71
77
103
97
72
57
53
58
64
60
58
67
73
77
61
48
48
67
79
70
51
39
41
51
61
71
77
87
91
80
71
71
70
67
79
80
64
64
77
77
73
73
65
55
61
77
83
73
64
64
68
70
74
82
78
72
70
77
75
58
47
58
79
79
70
75
87
93
77
53
45
56
70
75
78
78
70
68
57
48
47
64
82
83
78
70
57
53
67
77
84
94
95
86
79
78
75
72
83
82
63
61
76
77
65
54
47
52
64
72
67
61
59
61
59
51
60
76
75
68
61
67
67
61
55
67
79
70
61
64
64
77
67
51
51
67
83
92
94
79
61
67
67
70
65
68
80
83
86
82
70
57
64
75
87
95
93
88
76
77
87
88
89
87
71
70
80
79
67
55
46
57
67
67
60
57
64
71
71
61
60
70
70
65
58
72
78
74
70
79
74
61
58
59
75
70
57
46
57
74
77
82
84
75
67
75
77
78
68
70
82
84
78
73
70
56
51
57
73
87
93
88
70
73
90
86
80
83
74
76
82
80
76
77
73
77
77
70
61
54
64
79
83
73
67
70
70
63
61
80
86
82
80
83
70
60
64
75
84
72
61
53
64
70
53
56
67
74
82
86
78
70
64
70
79
82
71
64
61
51
46
48
61
77
83
78
59
58
74
71
75
87
85
85
86
80
74
84
86
85
78
70
71
61
64
77
83
73
63
64
61
53
60
80
80
79
82
87
74
56
57
76
87
83
75
68
80
73
47
45
60
74
90
97
83
61
57
60
64
68
61
51
48
48
48
53
64
80
80
77
63
51
54
54
71
91
98
96
92
82
74
84
88
88
77
72
82
79
76
82
89
83
71
59
45
36
54
82
84
82
84
92
78
53
51
70
86
94
86
75
83
74
53
51
64
70
82
95
85
64
57
52
52
56
57
48
47
54
60
64
71
85
88
89
79
57
48
52
74
87
93
92
80
71
73
85
92
91
76
70
79
83
87
87
87
85
80
67
51
42
57
76
80
77
79
89
82
65
64
68
87
90
80
68
72
67
55
53
67
68
70
78
79
67
61
60
60
58
67
67
58
61
70
67
64
73
82
94
93
74
63
64
77
79
84
85
70
61
70
80
88
87
73
70
75
80
86
80
79
79
72
64
54
51
56
58
67
73
68
77
82
82
82
74
82
74
61
51
49
49
53
59
71
74
67
64
75
75
73
74
71
71
78
75
68
76
83
73
57
53
61
83
94
80
65
63
74
78
87
87
72
63
67
64
70
73
65
67
67
73
77
76
76
79
68
58
54
57
57
49
57
67
67
70
77
83
89
83
64
60
57
47
44
52
67
82
87
85
71
57
67
77
80
79
75
79
77
64
65
74
78
74
61
51
57
75
83
68
49
57
74
83
93
93
80
71
67
56
60
72
71
67
64
65
65
65
67
80
77
60
55
63
65
55
51
58
67
72
78
85
86
73
56
54
61
61
58
57
67
87
99
99
84
57
53
70
75
73
71
78
77
64
64
67
64
63
65
57
59
77
84
71
56
61
71
78
89
92
83
77
70
63
65
80
83
71
63
67
68
68
70
83
77
57
53
67
80
71
61
63
65
68
77
80
72
52
67
65
70
70
67
54
57
80
97
103
92
61
52
64
64
59
58
64
70
58
52
59
55
58
73
68
67
85
92
80
67
67
70
72
83
86
82
77
68
61
67
80
90
83
64
60
68
75
80
92
84
61
53
64
80
77
67
65
64
67
67
71
65
47
67
67
72
76
68
54
57
71
77
85
87
70
64
70
68
63
61
59
64
52
46
57
63
68
82
75
70
85
87
82
73
75
72
61
67
80
80
73
58
51
57
77
90
87
73
58
55
59
73
89
95
78
57
59
72
75
70
63
64
68
70
75
71
58
59
57
73
84
77
63
58
57
53
64
84
82
75
75
73
72
67
61
64
61
57
61
70
77
80
74
77
79
70
71
67
78
80
57
51
70
74
67
57
54
52
64
74
77
75
60
47
49
64
73
89
86
65
64
67
67
71
67
67
75
78
83
77
64
68
61
78
91
92
87
77
64
56
67
88
87
75
71
64
63
67
68
74
68
61
55
57
67
68
67
73
72
63
67
67
78
86
61
47
61
65
68
72
70
64
64
65
64
67
57
48
51
55
56
71
78
70
74
68
57
65
67
70
78
86
94
86
73
75
67
76
86
93
96
88
77
68
74
83
80
70
58
47
51
70
83
84
71
63
51
46
51
56
61
67
68
70
72
71
85
90
67
51
56
51
60
67
68
68
72
67
60
61
61
61
52
49
54
64
72
75
73
64
52
59
70
80
86
88
96
96
88
75
67
70
77
82
87
83
80
80
80
67
57
55
46
45
57
71
86
88
78
65
54
51
52
56
65
64
64
67
60
58
79
85
64
53
47
39
53
59
63
72
77
73
67
67
67
65
54
57
72
80
87
87
74
64
56
57
73
84
85
83
89
88
80
71
70
71
75
72
83
83
79
82
83
64
51
55
56
59
65
70
86
88
71
59
60
64
68
77
78
63
53
58
60
61
78
83
67
57
52
49
57
59
64
70
70
67
75
80
74
68
59
61
84
101
103
98
85
76
70
67
72
77
76
76
83
77
60
77
73
70
73
71
85
87
77
77
85
77
61
64
67
63
59
70
85
82
61
59
74
77
76
79
75
64
54
65
83
93
97
92
77
67
67
59
51
48
51
55
58
57
67
79
76
76
68
65
89
103
98
89
88
85
73
65
64
71
74
67
67
65
57
64
63
59
68
79
95
94
77
71
79
77
67
68
73
61
53
64
76
71
63
70
80
75
71
65
60
64
68
80
97
103
103
88
76
68
70
64
54
52
52
47
53
61
64
71
75
83
79
73
91
98
84
74
83
83
67
63
61
67
78
68
56
64
77
48
56
57
63
77
87
86
76
67
65
65
65
70
71
58
54
63
67
61
57
61
61
51
51
55
57
64
77
84
91
93
92
80
68
65
67
71
70
65
65
53
49
61
67
70
77
83
77
71
87
96
83
70
73
72
61
70
65
57
70
68
57
67
87
48
56
57
58
67
67
63
68
71
64
59
67
77
77
61
63
70
73
70
57
48
37
28
37
57
70
74
77
80
82
77
77
73
67
68
74
78
75
64
72
70
57
61
63
67
76
79
72
67
76
82
71
60
61
65
64
77
68
54
67
67
58
70
83
64
64
63
67
70
64
56
64
73
73
70
79
84
77
59
59
71
80
80
70
61
48
39
48
70
86
83
72
74
79
75
70
67
65
67
80
89
83
65
70
75
64
64
67
70
70
73
70
67
67
70
61
47
48
57
61
77
73
63
72
65
59
74
82
83
73
65
64
65
68
70
77
83
77
76
80
79
70
59
57
63
74
78
76
75
77
72
67
79
90
80
61
59
67
70
71
75
73
70
80
91
84
67
59
59
54
58
67
70
64
67
72
72
70
70
63
48
48
58
64
75
72
67
74
63
57
68
70
79
67
57
48
51
64
75
83
86
77
70
67
72
74
72
70
64
61
64
73
77
86
89
83
85
90
85
65
56
67
70
71
84
89
87
88
89
77
57
46
46
48
61
71
74
71
77
83
80
67
57
56
48
51
67
67
67
60
61
71
64
61
67
67
75
64
56
48
51
63
67
71
82
79
67
60
67
77
87
87
77
59
51
65
73
76
80
80
80
84
88
78
70
77
75
76
88
93
90
90
90
82
67
57
54
59
70
77
77
75
82
85
79
58
49
56
48
52
64
59
57
61
68
71
67
70
80
86
75
67
60
60
61
64
59
57
73
86
79
67
61
70
89
92
83
64
57
65
67
64
63
53
54
67
77
72
70
74
74
78
79
77
74
75
83
87
79
72
67
65
63
67
74
77
77
76
74
60
63
73
67
64
68
64
67
77
79
67
59
67
80
84
78
74
65
61
63
67
57
46
51
74
77
68
54
58
80
86
84
71
64
64
67
67
57
36
42
60
67
64
67
67
70
67
58
51
51
61
82
84
71
67
61
56
56
67
75
76
75
71
80
80
83
84
74
71
70
64
70
76
71
65
64
68
68
57
68
72
67
57
57
67
64
53
51
61
67
68
54
52
67
77
84
78
64
60
65
67
58
48
51
53
54
61
70
80
79
63
54
51
52
72
87
83
67
63
57
56
61
70
72
68
70
74
87
93
90
85
79
77
70
59
65
68
57
55
65
65
58
51
68
76
70
57
53
67
73
70
67
60
63
75
67
59
58
67
85
87
71
61
64
58
59
67
61
46
41
61
82
90
83
67
67
67
67
76
73
70
65
61
65
70
73
76
67
61
68
80
88
87
76
70
75
75
63
55
67
71
55
46
63
71
67
67
76
79
64
48
52
67
76
71
67
56
58
77
79
80
77
74
82
83
67
64
61
53
64
76
67
52
54
77
91
84
74
67
75
74
72
70
60
59
61
67
73
75
72
71
64
63
78
93
96
87
70
61
68
70
64
57
61
65
57
46
59
76
78
80
71
80
70
55
64
77
80
77
65
49
49
58
64
83
90
83
82
80
73
70
57
53
74
83
71
64
67
87
96
80
65
64
70
67
59
64
67
65
70
77
80
74
65
57
64
76
89
98
97
89
75
73
77
79
83
77
64
64
64
53
55
63
70
80
54
77
80
72
83
91
91
89
74
54
51
51
57
80
92
92
92
89
84
80
67
61
78
84
73
67
73
88
96
82
61
57
57
54
54
68
75
68
73
77
75
70
60
45
49
70
83
91
94
96
88
87
90
89
98
96
80
70
61
56
57
54
67
75
54
67
74
82
96
95
86
84
71
57
65
72
76
87
88
93
95
86
77
84
84
75
74
71
61
58
68
83
90
80
56
47
53
60
70
83
78
67
73
72
67
65
61
48
39
52
70
83
88
94
87
82
83
80
88
92
85
73
58
61
65
61
75
78
70
64
64
77
87
82
65
61
60
60
72
85
91
89
77
77
82
76
70
77
78
67
64
65
61
48
49
68
85
80
52
34
47
63
73
82
76
73
83
84
75
64
64
57
46
48
61
71
77
84
75
70
68
64
67
75
82
77
68
74
78
77
82
78
78
77
70
71
72
64
51
53
57
57
64
79
90
88
70
53
57
61
64
60
57
57
67
79
72
48
42
61
80
79
58
46
58
67
70
72
73
76
78
82
83
77
67
58
60
60
61
70
80
83
64
56
53
51
56
61
77
82
77
70
70
74
72
61
82
85
77
71
67
64
65
75
76
73
73
80
87
88
70
46
41
54
70
64
51
57
79
94
80
56
58
80
89
82
75
75
76
75
77
72
73
78
73
77
86
84
74
64
63
65
67
74
83
85
67
52
48
52
58
57
68
76
75
64
51
57
67
61
67
80
79
76
71
73
83
88
86
88
87
80
78
84
76
59
52
64
85
83
71
75
90
96
84
67
77
93
89
80
80
83
78
79
80
72
72
84
85
80
71
70
73
61
57
63
65
60
67
77
67
53
56
67
67
56
58
64
70
72
56
48
61
67
57
70
73
83
84
82
82
77
74
83
80
73
75
82
73
61
64
76
87
87
84
86
88
90
85
80
82
80
65
59
67
76
73
75
78
67
64
77
85
78
61
57
61
54
51
56
56
46
49
59
52
49
60
68
68
65
71
74
74
82
65
46
57
80
46
54
67
87
90
83
70
61
67
71
67
71
77
75
63
56
60
70
77
84
91
88
80
82
83
78
71
64
56
58
67
73
64
61
61
52
56
57
65
76
79
72
58
49
51
54
52
44
46
49
41
48
61
64
67
78
89
87
82
82
64
47
55
76
38
51
67
78
77
76
73
70
65
57
48
59
67
68
67
60
65
75
77
86
96
87
76
68
68
67
64
56
53
64
75
77
58
47
46
51
57
46
48
64
85
91
74
59
64
72
70
61
65
64
45
48
67
68
64
77
87
89
87
77
67
68
67
60
51
64
65
61
59
70
79
77
61
47
46
53
70
77
74
61
67
75
77
84
86
79
79
72
64
65
68
55
49
63
79
87
70
52
55
67
65
55
51
51
65
83
78
63
64
75
80
78
79
79
61
55
68
74
71
72
71
80
87
78
72
82
80
68
61
70
59
54
54
60
64
67
60
51
55
61
76
80
74
61
61
60
61
70
67
65
80
79
61
56
64
58
54
67
74
82
79
67
70
73
73
68
61
53
53
70
78
65
57
67
77
76
70
74
77
74
70
74
74
67
60
75
92
93
83
80
82
80
57
63
57
59
67
64
49
48
54
51
57
63
68
70
70
61
57
51
47
53
58
64
82
77
55
46
51
59
58
67
71
71
72
72
70
75
85
80
70
67
64
68
75
64
46
49
63
61
51
57
77
83
77
74
72
70
67
76
90
96
85
72
75
80
40
48
51
58
70
65
51
46
48
53
57
57
64
70
68
63
58
48
39
49
70
79
83
77
70
64
60
65
65
73
78
71
67
70
68
74
87
83
73
78
75
64
63
67
58
52
52
49
47
55
76
79
71
70
70
73
67
64
73
80
75
67
70
75
51
52
53
60
71
73
70
67
67
74
72
68
73
76
73
74
75
64
46
54
78
84
73
61
67
80
76
67
68
76
75
67
72
84
84
78
83
82
74
73
63
46
53
75
82
77
67
61
56
58
75
72
59
59
67
73
61
49
52
55
61
68
75
75
77
63
57
70
87
90
82
74
85
89
77
70
74
80
80
79
80
77
63
65
83
82
64
51
57
78
79
70
76
77
67
60
74
90
96
87
77
68
63
59
51
42
55
79
91
91
84
77
59
53
70
71
55
48
57
63
52
51
54
56
64
74
77
75
88
67
59
68
85
92
83
72
80
83
65
56
70
89
92
82
74
79
73
77
88
84
75
64
59
71
67
57
70
70
57
57
71
86
90
83
65
51
52
57
53
51
64
78
84
85
85
80
59
55
70
72
54
47
58
60
52
63
71
73
67
68
78
77
87
79
70
68
70
75
78
73
70
64
48
48
77
98
97
83
77
80
74
77
85
83
79
77
71
72
58
47
65
70
59
61
76
84
84
72
57
49
53
61
65
68
68
67
64
67
75
73
61
60
67
73
63
63
71
73
71
74
75
72
55
47
65
73
73
82
77
67
61
63
67
64
64
64
55
57
80
91
79
64
67
75
79
82
82
79
80
89
89
80
58
45
60
71
70
80
85
78
83
76
61
61
61
64
71
74
60
49
51
59
64
63
60
52
54
67
73
78
80
76
75
71
63
61
53
41
56
64
64
68
68
67
67
70
67
58
68
83
79
70
76
77
59
43
47
64
76
73
70
74
78
90
93
80
57
46
63
77
77
87
85
76
83
82
72
71
70
77
82
76
58
48
51
51
56
59
61
51
51
58
67
77
80
77
76
67
51
54
58
54
67
75
70
61
55
67
76
77
70
58
70
87
87
75
72
74
61
45
56
75
74
61
59
68
77
80
77
71
58
53
67
74
67
76
80
80
80
78
73
74
77
89
95
87
75
70
67
51
56
67
67
64
68
70
74
80
77
74
76
67
49
47
48
51
67
80
83
61
44
58
77
77
71
57
57
75
83
74
70
79
72
56
70
88
87
75
61
64
76
78
73
75
74
70
67
64
61
70
74
75
77
78
77
74
76
90
98
93
86
83
77
64
67
72
68
71
79
77
72
73
68
68
74
70
56
42
38
49
64
71
79
63
56
67
77
75
74
64
59
70
76
71
72
82
80
71
82
95
98
89
67
59
75
84
80
77
76
79
75
64
65
67
65
63
71
82
79
71
67
79
90
83
78
85
83
71
67
71
70
67
67
65
64
67
68
70
71
70
64
48
52
77
87
87
73
72
78
82
77
76
71
65
61
67
68
67
68
80
88
88
94
100
99
85
61
49
74
87
80
71
64
76
83
76
68
65
64
57
67
82
74
60
56
63
73
64
63
78
80
71
64
64
67
64
61
67
73
73
70
64
59
61
61
58
75
96
102
101
67
70
77
82
77
72
60
60
64
64
64
59
61
75
90
94
92
96
95
83
64
57
77
83
76
77
73
76
85
80
72
74
70
64
74
84
71
61
65
64
67
63
57
67
71
74
67
59
64
74
80
77
74
74
65
49
42
48
63
79
90
92
96
98
61
64
70
80
78
67
51
52
67
67
65
64
64
72
86
92
83
80
78
73
67
71
82
72
65
79
82
80
80
73
75
85
76
67
83
96
92
87
88
83
84
82
64
56
67
76
70
60
58
77
89
79
64
61
49
41
45
55
72
88
92
82
84
86
57
70
85
91
83
73
52
36
46
51
61
67
70
80
89
87
70
60
48
43
56
74
78
61
55
77
87
89
86
83
93
101
85
73
88
99
103
103
102
94
96
94
71
58
75
87
80
63
47
65
78
70
60
46
26
27
48
75
86
95
96
80
67
54
