P2
# Created by GIMP version 2.10.8 PNM plug-in
64 64
255
76
64
51
45
57
95
114
93
97
110
91
81
85
62
57
72
87
100
95
72
45
38
28
51
59
36
51
100
117
110
78
32
0
9
34
51
68
78
100
108
87
57
57
68
93
115
102
45
38
81
102
89
81
72
45
51
57
26
9
6
45
112
125
95
78
76
59
30
28
57
79
68
79
85
51
40
57
72
81
95
93
79
62
62
62
57
51
45
34
15
32
62
76
78
62
17
0
0
26
51
81
102
104
95
87
64
51
59
87
100
97
76
66
78
76
62
51
38
15
26
40
32
21
11
38
93
119
108
62
59
57
30
26
44
51
49
59
59
30
21
38
62
74
85
79
70
62
62
70
68
57
42
19
15
26
38
57
62
53
26
15
42
66
79
93
95
95
91
76
51
42
59
81
93
93
76
51
32
23
19
26
42
40
49
72
76
51
32
51
78
100
95
59
57
64
49
45
49
44
57
66
53
28
32
40
57
74
81
79
79
81
79
85
89
66
36
26
45
53
49
53
51
57
51
45
68
87
87
74
57
57
74
64
38
42
74
76
72
74
64
34
8
11
23
42
57
57
62
85
95
79
57
57
62
74
79
89
89
81
66
66
62
53
62
57
32
13
34
51
62
91
97
93
79
70
70
79
85
64
51
57
68
66
51
40
40
62
66
62
79
93
87
68
49
51
62
59
45
57
91
87
59
51
59
57
28
26
51
66
62
62
76
81
78
68
51
57
62
59
66
123
110
74
57
68
70
62
57
40
28
28
53
57
51
70
87
87
57
26
17
28
40
44
62
76
81
81
62
45
45
64
68
78
91
81
72
78
72
76
79
68
49
51
87
102
78
57
59
74
62
57
76
78
64
74
93
87
57
38
40
66
74
64
76
125
114
66
38
30
40
51
44
40
57
68
76
45
21
21
57
79
62
26
4
8
26
45
64
76
95
102
81
64
64
62
57
79
81
51
51
76
76
68
68
53
34
45
76
87
68
51
51
59
62
70
85
78
66
62
76
72
40
19
40
79
79
62
72
95
106
76
30
15
36
62
72
78
78
62
59
38
21
19
51
85
87
78
62
38
30
57
76
89
108
110
93
79
78
72
66
87
85
49
45
74
76
53
32
19
28
51
66
57
45
42
45
42
26
44
74
72
59
45
57
57
45
34
57
79
62
45
51
51
76
57
26
26
57
87
104
108
79
45
57
57
62
53
59
81
87
93
85
62
38
51
72
95
110
106
97
74
76
95
97
98
95
64
62
81
79
57
34
17
38
57
57
44
38
51
64
64
45
44
62
62
53
40
66
78
70
62
79
70
45
40
42
72
62
38
17
38
70
76
85
89
72
57
72
76
78
59
62
85
89
78
68
62
36
26
38
68
95
106
97
62
68
100
93
81
87
70
74
85
81
74
76
68
76
76
62
45
32
51
79
87
68
57
62
62
49
45
81
93
85
81
87
62
44
51
72
89
66
45
30
51
62
30
36
57
70
85
93
78
62
51
62
79
85
64
51
45
26
17
21
45
76
87
78
42
40
70
64
72
95
91
91
93
81
70
89
93
91
78
62
64
45
51
76
87
68
49
51
45
30
44
81
81
79
85
95
70
36
38
74
95
87
72
59
81
68
19
15
44
70
100
114
87
45
38
44
51
59
45
26
21
21
21
30
51
81
81
76
49
26
32
32
64
102
115
112
104
85
70
89
97
97
76
66
85
79
74
85
98
87
64
42
15
0
32
85
89
85
89
104
78
30
26
62
93
108
93
72
87
70
30
26
51
62
85
110
91
51
38
28
28
36
38
21
19
32
44
51
64
91
97
98
79
38
21
28
70
95
106
104
81
64
68
91
104
102
74
62
79
87
95
95
95
91
81
57
26
9
38
74
81
76
79
98
85
53
51
59
95
100
81
59
66
57
34
30
57
59
62
78
79
57
45
44
44
40
57
57
40
45
62
57
51
68
85
108
106
70
49
51
76
79
89
91
62
45
62
81
97
95
68
62
72
81
93
81
79
79
66
51
32
26
36
40
57
68
59
76
85
85
85
70
85
70
45
26
23
23
30
42
64
70
57
51
72
72
68
70
64
64
78
72
59
74
87
68
38
30
45
87
108
81
53
49
70
78
95
95
66
49
57
51
62
68
53
57
57
68
76
74
74
79
59
40
32
38
38
23
38
57
57
62
76
87
98
87
51
44
38
19
13
28
57
85
95
91
64
38
57
76
81
79
72
79
76
51
53
70
78
70
45
26
38
72
87
59
23
38
70
87
106
106
81
64
57
36
44
66
64
57
51
53
53
53
57
81
76
44
34
49
53
34
26
40
57
66
78
91
93
68
36
32
45
45
40
38
57
95
117
117
89
38
30
62
72
68
64
78
76
51
51
57
51
49
53
38
42
76
89
64
36
45
64
78
98
104
87
76
62
49
53
81
87
64
49
57
59
59
62
87
76
38
30
57
81
64
45
49
53
59
76
81
66
28
57
53
62
62
57
32
38
81
114
125
104
45
28
51
51
42
40
51
62
40
28
42
34
40
68
59
57
91
104
81
57
57
62
66
87
93
85
76
59
45
57
81
100
87
51
44
59
72
81
104
89
45
30
51
81
76
57
53
51
57
57
64
53
19
57
57
66
74
59
32
38
64
76
91
95
62
51
62
59
49
45
42
51
28
17
38
49
59
85
72
62
91
95
85
68
72
66
45
57
81
81
68
40
26
38
76
100
95
68
40
34
42
68
98
110
78
38
42
66
72
62
49
51
59
62
72
64
40
42
38
68
89
76
49
40
38
30
51
89
85
72
72
68
66
57
45
51
45
38
45
62
76
81
70
76
79
62
64
57
78
81
38
26
62
70
57
38
32
28
51
70
76
72
44
19
23
51
68
98
93
53
51
57
57
64
57
57
72
78
87
76
51
59
45
78
102
104
95
76
51
36
57
97
95
72
64
51
49
57
59
70
59
45
34
38
57
59
57
68
66
49
57
57
78
93
45
19
45
53
59
66
62
51
51
53
51
57
38
21
26
34
36
64
78
62
70
59
38
53
57
62
78
93
108
93
68
72
57
74
93
106
112
97
76
59
70
87
81
62
40
19
26
62
87
89
64
49
26
17
26
36
45
57
59
62
66
64
91
100
57
26
36
26
44
57
59
59
66
57
44
45
45
45
28
23
32
51
66
72
68
51
28
42
62
81
93
97
112
112
97
72
57
62
76
85
95
87
81
81
81
57
38
34
17
15
38
64
93
97
78
53
32
26
28
36
53
51
51
57
44
40
79
91
51
30
19
4
30
42
49
66
76
68
57
57
57
53
32
38
66
81
95
95
70
51
36
38
68
89
91
87
98
97
81
64
62
64
72
66
87
87
79
85
87
51
26
34
36
42
53
62
93
97
64
42
44
51
59
76
78
49
30
40
44
45
78
87
57
38
28
23
38
42
51
62
62
57
72
81
70
59
42
45
89
121
125
115
91
74
62
57
66
76
74
74
87
76
44
76
68
62
68
64
91
95
76
76
91
76
45
51
57
49
42
62
91
85
45
42
70
76
74
79
72
51
32
53
87
106
114
104
76
57
57
42
26
21
26
34
40
38
57
79
74
74
59
53
98
125
115
98
97
91
68
53
51
64
70
57
57
53
38
51
49
42
59
79
110
108
76
64
79
76
57
59
68
45
30
51
74
64
49
62
81
72
64
53
44
51
59
81
114
125
125
97
74
59
62
51
32
28
28
19
30
45
51
64
72
87
79
68
102
115
89
70
87
87
57
49
45
57
78
59
36
51
76
21
36
38
49
76
95
93
74
57
53
53
53
62
64
40
32
49
57
45
38
45
45
26
26
34
38
51
76
89
102
106
104
81
59
53
57
64
62
53
53
30
23
45
57
62
76
87
76
64
95
112
87
62
68
66
45
62
53
38
62
59
38
57
95
21
36
38
40
57
57
49
59
64
51
42
57
76
76
45
49
62
68
62
38
21
0
0
0
38
62
70
76
81
85
76
76
68
57
59
70
78
72
51
66
62
38
45
49
57
74
79
66
57
74
85
64
44
45
53
51
76
59
32
57
57
40
62
87
51
51
49
57
62
51
36
51
68
68
62
79
89
76
42
42
64
81
81
62
45
21
4
21
62
93
87
66
70
79
72
62
57
53
57
81
98
87
53
62
72
51
51
57
62
62
68
62
57
57
62
45
19
21
38
45
76
68
49
66
53
42
70
85
87
68
53
51
53
59
62
76
87
76
74
81
79
62
42
38
49
70
78
74
72
76
66
57
79
100
81
45
42
57
62
64
72
68
62
81
102
89
57
42
42
32
40
57
62
51
57
66
66
62
62
49
21
21
40
51
72
66
57
70
49
38
59
62
79
57
38
21
26
51
72
87
93
76
62
57
66
70
66
62
51
45
51
68
76
93
98
87
91
100
91
53
36
57
62
64
89
98
95
97
98
76
38
17
17
21
45
64
70
64
76
87
81
57
38
36
21
26
57
57
57
44
45
64
51
45
57
57
72
51
36
21
26
49
57
64
85
79
57
44
57
76
95
95
76
42
26
53
68
74
81
81
81
89
97
78
62
76
72
74
97
106
100
100
100
85
57
38
32
42
62
76
76
72
85
91
79
40
23
36
21
28
51
42
38
45
59
64
57
62
81
93
72
57
44
44
45
51
42
38
68
93
79
57
45
62
98
104
87
51
38
53
57
51
49
30
32
57
76
66
62
70
70
78
79
76
70
72
87
95
79
66
57
53
49
57
70
76
76
74
70
44
49
68
57
51
59
51
57
76
79
57
42
57
81
89
78
70
53
45
49
57
38
17
26
70
76
59
32
40
81
93
89
64
51
51
57
57
38
0
9
44
57
51
57
57
62
57
40
26
26
45
85
89
64
57
45
36
36
57
72
74
72
64
81
81
87
89
70
64
62
51
62
74
64
53
51
59
59
38
59
66
57
38
38
57
51
30
26
45
57
59
32
28
57
76
89
78
51
44
53
57
40
21
26
30
32
45
62
81
79
49
32
26
28
66
95
87
57
49
38
36
45
62
66
59
62
70
95
106
100
91
79
76
62
42
53
59
38
34
53
53
40
26
59
74
62
38
30
57
68
62
57
44
49
72
57
42
40
57
91
95
64
45
51
40
42
57
45
17
8
45
85
100
87
57
57
57
57
74
68
62
53
45
53
62
68
74
57
45
59
81
97
95
74
62
72
72
49
34
57
64
34
17
49
64
57
57
74
79
51
21
28
57
74
64
57
36
40
76
79
81
76
70
85
87
57
51
45
30
51
74
57
28
32
76
102
89
70
57
72
70
66
62
44
42
45
57
68
72
66
64
51
49
78
106
112
95
62
45
59
62
51
38
45
53
38
17
42
74
78
81
64
81
62
34
51
76
81
76
53
23
23
40
51
87
100
87
85
81
68
62
38
30
70
87
64
51
57
95
112
81
53
51
62
57
42
51
57
53
62
76
81
70
53
38
51
74
98
115
114
98
72
68
76
79
87
76
51
51
51
30
34
49
62
81
32
76
81
66
87
102
102
98
70
32
26
26
38
81
104
104
104
98
89
81
57
45
78
89
68
57
68
97
112
85
45
38
38
32
32
59
72
59
68
76
72
62
44
15
23
62
87
102
108
112
97
95
100
98
115
112
81
62
45
36
38
32
57
72
32
57
70
85
112
110
93
89
64
38
53
66
74
95
97
106
110
93
76
89
89
72
70
64
45
40
59
87
100
81
36
19
30
44
62
87
78
57
68
66
57
53
45
21
4
28
62
87
97
108
95
85
87
81
97
104
91
68
40
45
53
45
72
78
62
51
51
76
95
85
53
45
44
44
66
91
102
98
76
76
85
74
62
76
78
57
51
53
45
21
23
59
91
81
28
0
19
49
68
85
74
68
87
89
72
51
51
38
17
21
45
64
76
89
72
62
59
51
57
72
85
76
59
70
78
76
85
78
78
76
62
64
66
51
26
30
38
38
51
79
100
97
62
30
38
45
51
44
38
38
57
79
66
21
9
45
81
79
40
17
40
57
62
66
68
74
78
85
87
76
57
40
44
44
45
62
81
87
51
36
30
26
36
45
76
85
76
62
62
70
66
45
85
91
76
64
57
51
53
72
74
68
68
81
95
97
62
17
8
32
62
51
26
38
79
108
81
36
40
81
98
85
72
72
74
72
76
66
68
78
68
76
93
89
70
51
49
53
57
70
87
91
57
28
21
28
40
38
59
74
72
51
26
38
57
45
57
81
79
74
64
68
87
97
93
97
95
81
78
89
74
42
28
51
91
87
64
72
100
112
89
57
76
106
98
81
81
87
78
79
81
66
66
89
91
81
64
62
68
45
38
49
53
44
57
76
57
30
36
57
57
36
40
51
62
66
36
21
45
57
38
62
68
87
89
85
85
76
70
87
81
68
72
85
68
45
51
74
95
95
89
93
97
100
91
81
85
81
53
42
57
74
68
72
78
57
51
76
91
78
45
38
45
32
26
36
36
17
23
42
28
23
44
59
59
53
64
70
70
85
53
17
38
81
17
32
57
95
100
87
62
45
57
64
57
64
76
72
49
36
44
62
76
89
102
97
81
85
87
78
64
51
36
40
57
68
51
45
45
28
36
38
53
74
79
66
40
23
26
32
28
13
17
23
8
21
45
51
57
78
98
95
85
85
51
19
34
74
2
26
57
78
76
74
68
62
53
38
21
42
57
59
57
44
53
72
76
93
112
95
74
59
59
57
51
36
30
51
72
76
40
19
17
26
38
17
21
51
91
102
70
42
51
66
62
45
53
51
15
21
57
59
51
76
95
98
95
76
57
59
57
44
26
51
53
45
42
62
79
76
45
19
17
30
62
76
70
45
57
72
76
89
93
79
79
66
51
53
59
34
23
49
79
95
62
28
34
57
53
34
26
26
53
87
78
49
51
72
81
78
79
79
45
34
59
70
64
66
64
81
95
78
66
85
81
59
45
62
42
32
32
44
51
57
44
26
34
45
74
81
70
45
45
44
45
62
57
53
81
79
45
36
51
40
32
57
70
85
79
57
62
68
68
59
45
30
30
62
78
53
38
57
76
74
62
70
76
70
62
70
70
57
44
72
104
106
87
81
85
81
38
49
38
42
57
51
23
21
32
26
38
49
59
62
62
45
38
26
19
30
40
51
85
76
34
17
26
42
40
57
64
64
66
66
62
72
91
81
62
57
51
59
72
51
17
23
49
45
26
38
76
87
76
70
66
62
57
74
100
112
91
66
72
81
6
21
26
40
62
53
26
17
21
30
38
38
51
62
59
49
40
21
4
23
62
79
87
76
62
51
44
53
53
68
78
64
57
62
59
70
95
87
68
78
72
51
49
57
40
28
28
23
19
34
74
79
64
62
62
68
57
51
68
81
72
57
62
72
26
28
30
44
64
68
62
57
57
70
66
59
68
74
68
70
72
51
17
32
78
89
68
45
57
81
74
57
59
74
72
57
66
89
89
78
87
85
70
68
49
17
30
72
85
76
57
45
36
40
72
66
42
42
57
68
45
23
28
34
45
59
72
72
76
49
38
62
95
100
85
70
91
98
76
62
70
81
81
79
81
76
49
53
87
85
51
26
38
78
79
62
74
76
57
44
70
100
112
95
76
59
49
42
26
9
34
79
102
102
89
76
42
30
62
64
34
21
38
49
28
26
32
36
51
70
76
72
97
57
42
59
91
104
87
66
81
87
53
36
62
98
104
85
70
79
68
76
97
89
72
51
42
64
57
38
62
62
38
38
64
93
100
87
53
26
28
38
30
26
51
78
89
91
91
81
42
34
62
66
32
19
40
44
28
49
64
68
57
59
78
76
95
79
62
59
62
72
78
68
62
51
21
21
76
115
114
87
76
81
70
76
91
87
79
76
64
66
40
19
53
62
42
45
74
89
89
66
38
23
30
45
53
59
59
57
51
57
72
68
45
44
57
68
49
49
64
68
64
70
72
66
34
19
53
68
68
85
76
57
45
49
57
51
51
51
34
38
81
102
79
51
57
72
79
85
85
79
81
98
98
81
40
15
44
64
62
81
91
78
87
74
45
45
45
51
64
70
44
23
26
42
51
49
44
28
32
57
68
78
81
74
72
64
49
45
30
8
36
51
51
59
59
57
57
62
57
40
59
87
79
62
74
76
42
11
19
51
74
68
62
70
78
100
106
81
38
17
49
76
76
95
91
74
87
85
66
64
62
76
85
74
40
21
26
26
36
42
45
26
26
40
57
76
81
76
74
57
26
32
40
32
57
72
62
45
34
57
74
76
62
40
62
95
95
72
66
70
45
15
36
72
70
45
42
59
76
81
76
64
40
30
57
70
57
74
81
81
81
78
68
70
76
98
110
95
72
62
57
26
36
57
57
51
59
62
70
81
76
70
74
57
23
19
21
26
57
81
87
45
13
40
76
76
64
38
38
72
87
70
62
79
66
36
62
97
95
72
45
51
74
78
68
72
70
62
57
51
45
62
70
72
76
78
76
70
74
100
115
106
93
87
76
51
57
66
59
64
79
76
66
68
59
59
70
62
36
9
2
23
51
64
79
49
36
57
76
72
70
51
42
62
74
64
66
85
81
64
85
110
115
98
57
42
72
89
81
76
74
79
72
51
53
57
53
49
64
85
79
64
57
79
100
87
78
91
87
64
57
64
62
57
57
53
51
57
59
62
64
62
51
21
28
76
95
95
68
66
78
85
76
74
64
53
45
57
59
57
59
81
97
97
108
119
117
91
45
23
70
95
81
64
51
74
87
74
59
53
51
38
57
85
70
44
36
49
68
51
49
78
81
64
51
51
57
51
45
57
68
68
62
51
42
45
45
40
72
112
123
121
57
62
76
85
76
66
44
44
51
51
51
42
45
72
100
108
104
112
110
87
51
38
76
87
74
76
68
74
91
81
66
70
62
51
70
89
64
45
53
51
57
49
38
57
64
70
57
42
51
70
81
76
70
70
53
23
9
21
49
79
100
104
112
115
45
51
62
81
78
57
26
28
57
57
53
51
51
66
93
104
87
81
78
68
57
64
85
66
53
79
85
81
81
68
72
91
74
57
87
112
104
95
97
87
89
85
51
36
57
74
62
44
40
76
98
79
51
45
23
8
15
34
66
97
104
85
89
93
38
62
91
102
87
68
28
0
17
26
45
57
62
81
98
95
62
44
21
11
36
70
78
45
34
76
95
98
93
87
106
121
91
68
97
117
125
125
123
108
112
108
64
40
72
95
81
49
19
53
78
62
44
17
0
0
21
72
93
110
112
81
57
32
