P2
# Created by GIMP version 2.10.12 PNM plug-in
64 64
65535
3498
3571
3237
3487
3231
2261
1100
2857
2524
496
0
96
1436
2991
3006
3011
3146
3201
3182
3658
3574
4009
3847
3854
4297
4055
3990
4240
3765
4064
4686
4632
4309
4155
4066
4369
4626
4536
4007
4017
3834
3818
3752
3703
3326
3346
3005
3003
2991
3087
3007
2975
2913
2990
3249
3843
3704
3214
3157
3483
3323
3620
3454
4338
4045
4592
3738
3365
3133
2697
2912
2907
3081
1193
0
0
104
2246
3015
3274
3334
3190
3246
3731
3950
4066
4014
4192
3704
3815
3837
4941
4191
3885
5054
4813
4559
4117
4138
4111
4350
4129
4240
4191
3912
3915
4120
3945
3579
3375
3139
2970
2963
3030
3006
2912
2927
2966
3015
3125
3338
3210
3519
3732
3642
3515
3759
4251
3778
5083
4767
3472
3122
3435
3066
3115
3385
1208
0
0
0
1462
419
2853
3442
3175
3406
4399
4447
3970
3943
4094
4054
4421
3672
5136
4394
4056
4305
4546
5642
4894
4104
4251
4609
4616
4716
4054
3969
4190
4414
4613
4163
3615
3318
3077
2962
2918
3060
2999
2917
3001
2952
2977
3056
3137
4007
4683
4112
3499
3437
4400
3803
3916
4401
4113
3689
3866
3270
2767
881
378
0
0
37
205
95
2073
3417
3385
3261
3362
3906
4038
3941
3918
3955
3789
3825
5040
5057
4397
4034
4355
4701
5160
5613
4407
4061
4305
4682
4859
3946
3981
3859
4557
3976
3334
3321
3310
3073
2906
3045
3147
3079
3115
3031
3020
2983
3006
3436
3598
3927
3805
3160
4365
3002
3168
3325
3924
4105
4458
3757
1201
80
0
0
0
0
0
79
2675
3760
3548
3706
3585
4245
3864
3676
3391
3280
3832
4127
4366
5218
4427
3790
4533
5065
6086
6620
5176
4569
5400
5703
5636
4740
4217
3588
3641
3506
3384
3636
3125
2533
2034
2768
3071
3140
3058
3165
3080
3056
3033
3088
3443
3460
3570
3288
4112
1063
2867
2995
3557
3692
4155
3528
1084
0
0
0
0
0
0
87
2362
3617
3585
3765
3618
3433
3582
3244
3294
3267
3653
3958
4295
4386
4101
3438
3842
4570
4512
5041
4653
4754
5328
5539
6556
5538
4229
3299
3713
3624
4096
3617
3301
1151
118
535
2772
3065
3024
3112
3137
3069
3013
3187
3210
3301
3300
3281
3620
308
1413
691
2574
3644
3340
1497
111
0
0
0
0
0
0
0
1749
1656
1802
2021
3134
3412
3788
4165
3747
3305
3593
3964
4425
4658
4268
4060
3474
3917
4475
4550
3948
4735
4737
5550
7766
6012
4554
3608
4239
4342
4329
3934
2605
443
0
117
771
2560
3022
3023
3055
3092
3074
3128
3204
3223
3172
3110
3131
1037
1987
153
969
2116
2399
210
0
0
0
0
0
0
0
0
119
35
0
282
2826
3298
3501
3878
3874
3484
3507
4007
4415
4540
4487
4720
3623
3658
5328
4675
4777
5521
5141
5877
8292
6916
4812
4024
4328
4334
4216
3409
396
5
0
0
57
393
2168
2970
3007
3094
3138
2832
3005
2996
3120
3256
3487
1853
570
0
0
84
76
0
0
0
0
0
0
0
0
0
0
0
141
682
2962
3273
3600
3923
3712
3437
3388
3816
4376
3826
4978
4525
3410
3756
4881
4849
5564
6478
5967
5424
7075
6207
4653
4214
4101
4931
3522
2266
138
151
96
0
0
0
418
1938
3006
3057
3059
2342
2476
2979
3317
3119
3407
80
81
0
0
0
0
0
0
0
0
0
0
0
0
0
0
0
1168
1746
2946
3203
3368
3860
3917
4114
3474
4474
3821
4033
4320
3902
3993
4080
5018
5085
5835
6248
6058
6274
6514
5023
4126
3763
3613
4032
3071
1327
244
1868
1002
851
0
0
0
529
2570
3041
3059
3033
2787
2408
3037
1845
1801
0
0
0
0
0
0
0
0
0
0
0
0
0
0
0
0
0
1081
1004
2894
3160
3319
3174
3478
3526
3433
4526
3777
4083
4218
4610
4708
4158
4047
4901
5706
6270
6136
6224
6458
4780
3896
3804
4060
4072
3102
548
0
557
304
0
0
0
0
0
829
2402
3099
3016
2971
2904
1740
413
0
0
0
0
0
0
0
0
0
0
0
0
0
0
0
0
0
0
480
985
2774
3173
3253
3133
3159
3098
3211
3486
3325
3852
5026
6206
5149
5061
4314
4448
5585
6179
6030
5729
6141
4818
3836
3570
3910
3780
3292
311
0
0
0
0
0
0
0
0
0
657
2075
3036
3002
2990
2590
72
101
0
0
0
0
0
0
0
0
0
0
0
0
0
0
0
0
0
0
513
2761
3205
3364
3314
3129
3110
3143
3940
4013
3868
4262
5153
4793
4759
4701
4809
5111
6275
6765
5441
4767
4918
3691
3457
3908
4273
3786
1140
0
0
0
0
0
0
0
0
0
0
726
2327
2934
3033
2997
2873
2359
0
0
0
0
0
0
0
0
0
0
0
0
0
0
0
0
0
0
356
2583
3099
3252
3156
3113
3135
3257
3669
3996
3540
3872
4311
4684
5148
4434
4326
4202
5674
6221
5125
4516
3854
3603
3902
4892
4898
4006
3064
482
0
0
0
0
0
0
0
0
0
9
123
2107
2962
3060
2925
2968
0
0
0
0
0
0
0
0
0
0
0
0
0
0
0
0
0
0
0
1937
3084
3314
3141
3143
3424
3714
3367
3800
3543
3889
4087
4396
4390
4010
3981
4021
3771
3682
4106
4378
3550
3582
4272
5052
4263
3525
3750
1418
0
0
0
0
0
0
0
0
0
0
0
98
1719
3029
2953
2957
0
0
0
0
0
0
0
0
0
0
0
0
0
0
0
0
0
0
650
2561
3143
3836
3495
3242
4000
4724
4119
4173
4117
4613
3674
3801
3416
3135
3527
3876
3496
3294
3665
4393
4106
4896
4617
4444
4061
3656
4106
1535
0
0
0
0
0
0
0
0
0
0
0
0
87
1345
2989
2956
0
0
0
0
0
0
0
0
0
0
0
0
0
0
0
0
0
321
2547
3117
3428
3784
3544
3242
3158
3598
4181
4109
3992
4263
3458
3312
3367
3146
3372
3351
3571
3654
3559
4045
4690
5268
4964
4913
5237
5102
3523
893
0
0
0
0
0
0
0
0
0
0
0
0
0
291
1885
3013
0
0
0
0
0
0
0
0
0
0
0
0
0
0
331
877
609
2406
3036
3056
3767
3909
3576
3249
3416
3201
3895
4145
4133
3964
3772
3307
3693
3438
3541
3320
3430
3461
3563
3870
5063
5112
5392
5329
5328
4581
2862
522
0
0
0
0
0
0
0
0
0
0
0
0
0
0
513
1095
0
0
0
0
0
0
0
0
0
0
0
0
0
0
489
2871
2866
2904
3106
3311
3436
3845
4047
3131
3056
3136
4384
6028
4864
4094
4362
3307
3375
3737
3593
3354
3351
3560
3476
3480
3733
4110
4280
4916
4766
4219
3579
0
0
0
0
0
0
0
0
0
0
0
0
0
0
0
0
215
0
0
0
0
0
0
0
0
0
0
0
0
0
0
1338
3098
2998
3260
3287
3051
3263
3268
3222
3032
3053
3085
3604
5526
4950
3921
4736
4130
4206
3523
3298
3668
3244
3828
4170
3826
3737
3460
3550
3637
4476
3732
2246
118
0
0
0
0
0
0
0
0
0
0
0
0
0
0
0
0
0
0
0
0
0
0
0
0
0
0
0
0
0
0
2031
3011
3085
3676
3344
3076
3040
2957
3026
2825
2955
3274
4040
3908
4183
3918
4822
5443
5148
4110
3132
3284
3172
3308
3638
3880
3477
3232
3132
3029
2888
804
0
0
0
0
0
0
0
0
0
0
0
0
0
0
0
0
0
0
0
0
0
0
0
0
0
0
0
0
0
0
0
0
1881
3145
3086
3257
2969
2426
1876
2122
1585
2093
2813
3870
5306
4058
3776
3782
5860
5767
4712
3637
3399
4125
3470
3213
3402
3638
4203
2913
1743
1043
499
207
0
0
0
0
0
0
0
0
0
0
0
0
0
0
0
0
0
0
0
0
0
0
0
0
0
0
0
0
0
0
0
0
536
2208
2825
2974
1791
100
157
100
647
2641
2957
3287
3962
3623
3609
3732
5179
4521
4351
3687
3711
3902
2640
2786
2888
1838
1822
926
0
0
0
0
0
0
0
0
0
0
0
0
0
0
0
0
0
0
0
0
0
0
0
0
0
0
0
0
0
0
0
0
0
0
0
0
0
114
0
412
102
0
0
0
0
1158
2900
3122
3845
3493
3425
3642
5139
5048
4477
3632
3811
1639
199
1061
1715
212
0
0
0
0
0
0
0
0
0
0
0
0
0
0
0
0
0
0
0
0
0
0
0
0
0
0
0
0
0
0
0
0
0
0
0
0
0
0
0
0
0
0
0
0
0
0
0
116
808
2093
3417
3582
3714
3793
4758
4194
3795
3101
1576
132
0
204
361
0
0
0
0
0
0
0
0
0
0
0
0
0
0
0
0
0
0
0
0
0
0
0
0
0
0
0
0
0
0
0
0
0
0
0
0
0
0
0
0
0
0
0
0
0
0
0
89
1666
2493
3144
3783
4099
3715
3872
4174
4133
3587
1655
205
0
0
0
0
0
0
0
0
0
0
0
0
0
0
0
0
0
94
0
163
0
0
0
0
0
0
0
0
0
0
0
0
0
0
0
0
0
0
0
0
0
0
0
0
0
0
0
0
0
0
0
92
1751
2777
2284
3214
4625
3414
3489
3485
3568
3443
246
0
0
0
0
0
0
0
0
0
0
0
0
0
0
0
184
809
464
1655
2382
2183
1694
1410
1032
382
115
86
0
0
0
0
0
0
0
0
0
0
0
0
0
0
0
0
0
0
0
0
0
0
0
0
0
0
79
0
35
1800
3245
3197
1897
2346
2996
1271
81
0
0
0
0
0
0
0
0
0
0
0
0
0
80
824
1813
3015
2954
2996
3080
3096
2940
3109
3440
3121
2449
1068
39
0
0
0
0
0
0
0
0
0
0
0
0
0
0
0
0
0
0
0
0
0
0
0
0
0
0
0
0
304
1005
854
93
186
2913
904
0
0
0
0
0
0
0
0
0
0
0
0
109
408
2226
2973
5686
5927
3678
3288
3379
3463
3254
3421
4253
5681
4669
3203
1778
1580
963
93
392
1018
1544
1244
1123
1211
1411
936
0
109
0
0
0
0
0
0
0
0
0
0
0
0
0
0
0
0
0
0
0
104
515
321
0
0
0
0
0
0
0
0
0
0
0
206
722
3893
6493
5668
7218
7027
5061
5144
4929
5828
4911
4803
4779
5623
7043
5572
3596
2934
2523
2688
2890
2980
3087
3031
3082
3084
3011
2883
2765
1887
1077
1616
1263
107
114
105
0
0
0
0
0
0
0
0
0
0
0
0
0
0
0
0
0
0
0
0
0
0
0
0
0
0
0
1499
2881
4971
6718
6829
6285
8128
7240
7189
6547
7130
6779
5082
4229
4819
5216
4134
3429
3020
2990
3361
3520
3233
3249
3211
3245
3255
2892
2991
3014
3325
2857
2819
2955
539
1819
2233
1783
865
96
0
0
0
0
0
0
0
0
0
0
0
0
0
0
0
0
0
0
0
0
0
0
0
1053
2899
3747
4413
5791
6644
6430
7095
7499
7175
5543
6546
6310
6290
5957
6078
5280
3414
3564
3322
3108
3346
3738
3709
4784
4499
3677
4220
3734
3947
4204
3586
3548
5310
3763
3260
3326
3242
3063
2942
2448
1351
389
0
0
0
0
0
0
0
0
0
0
0
0
0
0
0
0
0
95
0
0
988
2254
3910
7313
7063
6652
5291
6032
7473
8228
8322
7965
8808
9848
9120
9717
9097
7912
4457
3394
3547
3709
3945
4345
3649
4199
4241
3613
4178
4284
3712
3826
5214
6473
6676
5253
3980
3334
3136
3293
3038
3271
3001
2381
93
0
0
0
0
0
0
0
0
0
0
0
0
0
0
0
773
1438
2934
2916
2743
3047
4349
6697
7304
5440
6711
8173
11011
11344
11175
11252
10777
11445
11029
12095
12636
9591
5298
3517
3869
4656
5483
5247
4533
4681
4702
4603
5193
5745
4849
4105
5341
7058
6346
5642
4206
4757
3221
3690
3430
3056
2351
1303
167
0
0
0
0
0
69
280
1965
1401
206
0
0
0
227
1441
2547
2863
2887
2782
2773
3062
3302
3935
7170
7059
8124
9052
12414
12901
11650
12030
13481
13002
12245
13062
14238
11789
7749
4315
4530
5568
6355
6918
6525
6674
6133
6695
7137
7443
7030
5676
5488
6810
7568
6478
4445
4560
3552
3458
3940
3386
897
239
1014
1674
346
91
0
0
460
2699
3667
2656
243
0
92
723
2091
2887
2962
2940
2931
2867
2829
3218
3101
3341
5735
6456
7967
9751
12444
13055
12059
12757
13088
12720
12463
13183
14364
13732
9815
5583
4048
5879
6706
7409
6736
7435
7598
8061
8972
10267
9230
7734
7096
9108
9810
6049
4049
4301
5144
4059
3362
3777
2905
2732
3031
2978
2554
1759
0
0
1614
3580
5223
3104
1254
842
1757
2997
3018
2847
2964
2941
2985
2964
3319
3028
2943
3598
5234
5635
7998
11292
11959
13092
12629
14473
15161
14682
14814
14359
14290
13791
10351
5509
4436
4986
9308
8958
8869
9657
9438
11171
10805
12161
12461
10914
10666
11291
10443
7204
6090
5435
6705
6437
3671
3516
3172
3479
3088
2938
2860
2782
1909
1384
2572
3390
5447
4035
3069
3122
2992
3034
3026
2928
3275
3458
3863
3460
3029
3017
3009
3384
4835
5553
8712
12627
13440
12905
13626
16098
16321
16091
17153
16451
15813
14169
10904
7402
5724
4669
13007
10607
11288
12013
11417
12761
12519
13841
14613
13367
15363
15303
12225
8430
7614
5997
7234
8129
7543
4440
3568
4005
3867
3255
2925
3297
3203
2978
2953
3435
5252
4513
3383
3312
3173
3100
3083
3434
3525
4203
4151
3902
3280
3042
3177
3194
3921
7013
9999
13056
14703
14389
15112
17073
16349
15912
16621
16761
16122
14409
10812
7606
5868
4778
15575
13141
13428
14929
15301
15041
15420
17150
17609
14829
14597
15731
12571
9919
8982
7809
6868
7134
6267
4218
3994
3640
4321
3253
3039
3479
3339
3253
3692
3667
4090
4999
3838
3297
3277
4118
4902
5786
4343
3830
4022
4413
3677
3378
3300
2889
3434
5943
9135
12205
14644
16255
17493
17699
17434
18135
18127
17260
14925
13458
10783
7182
5968
4521
17945
16454
14749
16258
17294
18920
20054
22963
23804
20903
17019
14610
13998
13737
11132
7652
6922
6010
5355
4580
4044
3609
3907
3210
3420
3123
4553
5758
4684
3418
3414
3743
4564
4435
3960
4599
5056
4936
5220
3945
3663
4413
3984
4506
3790
3161
3742
6262
8636
11870
14987
18041
19264
19300
19595
19604
20021
19934
16964
14172
10687
8252
6665
5108
20847
18752
16586
17501
20372
23575
25433
28183
29698
26975
22085
17867
15379
13111
10846
8940
7920
6487
5529
4710
4227
4061
3944
4116
4180
4765
7768
7368
5257
4071
4032
5417
5611
4892
5429
5051
4630
3813
5551
5466
3536
3828
3645
3462
3924
3700
6044
8050
8595
10960
14366
17921
19581
19286
20038
19945
20669
19997
18288
15375
11944
10342
8459
6410
21222
20732
20649
20418
23812
28159
31376
33735
34422
31549
26033
20167
15974
13068
12134
10662
8918
7425
5769
5460
5261
5405
6026
5287
4324
5850
9747
7730
5621
4074
3671
4881
4807
4419
4337
3981
4444
3796
3894
5800
4169
3744
3632
3437
4136
5506
6835
7511
6970
9014
12882
16747
19181
20203
20884
20473
20627
20971
19789
15943
12268
10930
10201
8027
21305
23195
24538
24955
26429
31342
35135
36225
36387
33549
28440
24405
18780
14559
12488
10841
10375
9447
7523
7401
7394
7465
8229
7362
5985
6573
7616
5978
4046
3821
3575
4962
5163
3812
4261
4090
4079
3391
3401
5365
4731
4257
3728
3251
3331
5679
7633
7655
7210
8258
11283
14085
17611
19773
20761
20767
21235
23066
21548
16823
14203
13217
11552
8477
21459
24259
27112
28553
30065
33579
35280
34905
34009
32594
30451
26587
20265
15364
13460
11568
11537
12000
10807
10161
10046
10516
11046
9233
7784
8213
8811
7063
5452
4571
3893
4200
4082
4568
4171
4093
3425
3133
3182
3950
4941
5060
4156
3224
3387
5526
8533
9218
9062
9544
9912
13805
17959
19873
20618
21235
21882
25332
23334
19594
16638
14833
13165
10396
25286
26333
27269
28938
30767
33440
34251
34499
33070
31573
30472
25144
20059
16758
16188
15319
15718
14534
13830
13353
13987
13685
12665
11152
9153
10619
11287
10907
9501
6867
6142
4652
5606
6162
4998
4011
3532
3148
3172
3322
4009
4671
4900
3894
4843
6542
10868
11571
12439
12462
10810
12444
16838
19165
20454
21741
23034
25353
25629
21938
19508
17525
15710
12246
30668
30723
27997
26614
27671
28721
30069
31512
30647
30337
30464
26789
22957
19797
17792
18162
19602
19146
17946
18293
17362
16810
14931
13354
11519
13843
15979
15213
13815
9734
7276
5867
7162
7539
5813
4158
3399
3236
3165
3230
4137
5975
5832
4359
6048
6933
10644
12217
14708
16631
13868
12374
14067
18767
20138
22154
23958
25516
27190
24925
21525
18428
16254
14137
29658
29248
27772
25226
24004
25452
26626
26756
27090
27830
28684
27683
26219
23974
22007
21928
23860
23583
22413
22661
22236
21851
18049
15781
14877
16930
19482
18003
16232
11507
8001
8430
9953
9290
7526
4599
3568
3381
3198
3239
3749
5698
7045
5125
7010
9013
10240
12669
15461
16858
16144
14816
14276
17603
19192
20773
23620
26418
28390
25796
22413
19293
16980
14748
25371
25037
24849
23625
21401
22045
23246
22789
22440
23508
25715
28325
29524
28859
26624
26037
27718
27561
25981
25952
26415
25430
21588
18619
18851
19606
22654
19889
15858
11446
11871
13908
15182
12940
8757
5342
4353
4029
3324
3334
4646
6319
7510
7146
6819
9471
11269
12361
13564
14929
16901
17654
16290
16120
17715
20089
23268
25663
27918
26672
23811
21633
18945
16635
23184
21767
20692
20057
18980
18987
19625
19597
20065
21565
24003
26874
28586
31022
31078
30790
30881
29662
29275
30075
29766
26539
22866
21256
20847
21847
22115
20636
16805
13571
14686
17217
17205
14287
10650
6778
6462
6828
5474
4836
6389
7491
7559
8561
9263
11082
11680
12521
14214
16470
19775
20928
18616
17639
17929
19157
22049
25684
26727
26706
26308
25473
23017
20107
21255
18827
17089
17576
16797
16868
17600
18996
21107
22487
23908
26114
28308
30847
31730
32057
31438
30356
30304
29587
26638
23941
21266
19528
18539
19419
20177
19773
17967
18271
18492
19878
19237
16593
13952
10322
9034
9437
6959
6048
7295
7520
6791
8495
10494
12670
13231
13399
14870
18370
22639
24225
22479
19941
18926
19347
21535
24014
24151
24818
25349
27932
27187
23332
18530
15978
14416
14612
15165
16434
18175
20486
22328
24634
26455
26996
28540
30020
31174
31165
29324
27062
25860
24861
23118
21200
19428
17633
16113
17771
18462
17872
19839
22110
23214
24663
23917
20244
16013
12794
11004
10879
8178
7877
7292
5585
5364
7003
8904
12082
13221
13778
16121
20191
25112
27895
26205
24657
22427
19708
19281
19728
21584
22082
22720
25283
26383
23801
14766
13495
13732
15110
16304
17617
19570
20740
22001
25104
27807
29303
29934
29433
28862
28638
27408
24600
21926
21167
20390
20035
19941
17577
15029
15805
15941
16633
19622
22279
25410
26930
27028
22966
17512
14476
13590
13677
11956
10851
8234
7174
7055
6721
8739
11595
13093
14852
18028
21787
26548
28482
26481
24914
22652
18949
16168
16244
18409
19354
20718
20893
21708
20932
13068
12961
14369
16691
18104
19491
21775
23235
24339
26366
28639
29848
28846
27568
26916
27930
27291
23801
20298
18124
17958
18359
19211
17438
14833
13628
14310
17378
19823
21695
23790
25663
27306
25731
20032
16109
16372
15637
14184
12525
9841
8167
7658
7475
8440
11485
13614
16447
18973
22836
26731
26182
23348
22334
22440
19469
16272
14289
15720
18101
19554
17939
17416
17331
12637
13238
15428
17449
19046
19839
21410
23784
25712
28202
29543
29054
25783
24526
25208
27293
26739
23304
19386
16140
15840
16758
17457
15555
13376
12352
14736
16129
18042
20302
21752
24563
27214
27122
23164
18693
17859
15889
14705
13092
11991
10017
9423
9070
9076
11149
14112
17224
19760
23127
25299
23811
21722
21266
21110
20101
17077
14089
13684
15908
17511
15470
14798
15772
12139
13170
15276
17266
18727
19834
21516
22958
26652
29760
31272
29114
24373
20725
20273
22560
22564
20344
17638
14910
14358
14998
14361
12573
10953
12039
13830
15398
17876
19700
21804
25335
28131
26420
23945
20255
18277
17294
16463
14614
14030
13761
12586
12412
11511
11481
13935
17840
19762
22746
23242
22400
21178
20273
19614
17830
15327
13329
12368
12787
14446
12983
13048
14475
11911
13015
15564
16969
18232
19577
20601
22567
27046
30519
32577
30052
26770
22626
17767
17117
17801
17703
16966
14262
12805
14209
12923
11052
10356
11564
14372
17339
19045
21036
23587
26534
27277
24706
21101
20355
19782
20812
21105
19930
19352
18101
17505
17825
14934
12627
13153
16772
19775
21466
21989
21184
20127
18980
17832
17018
15760
15213
14078
11711
12418
11634
12272
13461
11869
12054
14192
16233
16607
18063
19091
21269
24267
27878
30480
28853
25527
21869
17868
15036
14285
14750
15566
14325
11910
12615
11283
9622
10738
11287
13393
16082
18279
20846
24186
26214
24627
22170
18466
18444
20947
23232
24726
25198
25154
23844
23136
21487
19083
15140
13791
14892
18583
19962
21213
21261
20144
18484
17302
17178
17102
16641
14985
12526
11274
11275
12314
13750
11407
12472
12777
14534
16478
15738
16146
17858
21205
24559
27856
27811
23709
18853
15712
14538
13231
14335
16183
14225
11555
10244
10097
9501
9566
10067
11833
14118
16092
18010
21067
22585
21673
18703
16457
15729
18736
21695
22981
24413
26361
26160
23103
19761
18497
16937
14683
14086
15960
18421
20302
20745
20667
19187
17606
17229
17579
17195
15218
13648
11507
11220
12353
14604
10182
11971
11566
13075
14042
11647
12833
14659
18237
22461
25854
25415
21748
17331
13386
12842
13206
16136
17107
13868
10775
9151
9500
9496
9121
9467
10325
12431
14034
14378
15614
18497
19444
16258
13642
13604
16276
19256
19236
19537
21198
22072
20047
17327
15708
15856
15436
15112
15877
17680
19221
21060
21596
20384
17383
17257
18078
17255
16424
15292
12730
11560
11589
11822
8673
9781
10958
10622
10418
9585
11959
14295
16364
19377
23388
21924
18463
15483
11691
11465
13161
15895
15632
12182
9671
8313
8940
9462
9378
10089
10181
10312
11665
12271
12194
14720
17054
16223
12384
10999
13187
16086
15220
14923
16498
18037
17052
14400
12424
13159
14402
14805
16082
16646
18813
21680
21026
19304
18166
18675
19399
18050
16174
14864
13436
12217
11719
9808
7458
8353
10186
10383
8786
9552
11916
14174
16634
19512
21474
18618
15631
13185
10723
12972
14814
14566
12816
10864
8175
7741
8705
8650
9230
10685
10031
7926
9181
10753
10616
11258
14061
14444
11169
8846
9846
10835
11262
11796
13035
14809
14427
12052
10129
10795
12936
15455
16604
16705
18817
21624
20628
18760
18751
20775
20876
18994
17147
15207
13071
12374
12057
11361
6276
7148
8011
8968
8417
10054
11999
15158
17949
19676
17439
14803
12599
10176
10095
13241
13940
12127
10473
8836
8291
7520
8763
9301
9703
10909
10278
6780
6854
9315
9953
8735
10233
10954
8627
6384
7050
8054
8875
9324
10041
11824
11954
10055
8770
9095
11701
14402
18302
19562
19359
21370
22342
20387
21344
23136
20788
18926
18643
16921
13869
13069
12587
10787
7357
7110
6857
7122
7782
9589
12500
15047
17304
15755
12224
9838
8298
7696
8928
11638
11724
10485
8668
7836
7221
7223
8154
11039
13100
13327
11539
7502
5201
7282
8528
6531
7162
6919
5001
4274
5057
6176
7643
8148
8931
9880
8876
7430
7206
8862
11605
15014
19191
21249
22113
21287
23262
22328
23559
24348
21293
19489
18408
16250
13682
12090
10246
8468
