P2
# Created by GIMP version 2.10.8 PNM plug-in
64 64
65535
22200
20627
19717
16673
16629
15997
14342
13336
13774
13469
12367
10836
9052
7381
6635
6497
6506
6816
6986
7015
7166
7303
7008
9691
12691
12108
12785
14447
14982
13509
11143
14575
14989
12124
13186
12892
10700
7497
8123
8199
7425
7216
6583
5899
5612
4893
3638
2864
2554
1719
1550
1494
1462
1374
1415
1397
1427
1484
1565
1597
1677
1790
2100
3523
17885
17211
15231
13086
11685
10752
9593
8569
8366
8509
8421
7521
6576
6121
5705
5856
6355
6868
7591
9704
11434
10280
8028
6925
8204
7427
7699
8816
9958
8928
8450
9402
9388
8440
9191
8278
7469
5999
5894
5719
5236
5143
4939
4537
4169
3943
3336
2127
1763
1655
1641
1600
1505
1484
1433
1481
1487
1539
1607
1777
1773
1870
1920
2313
14141
13060
10561
8599
7500
7185
7194
7382
6961
6478
6082
6089
5730
5353
5400
5777
6212
7866
9722
11842
12496
10601
7969
6229
4983
4315
4398
4662
5738
5720
5052
5257
5364
5364
5278
4958
4924
4034
3892
3217
2908
2948
2831
3392
4008
3092
2191
1904
1787
1770
1721
1602
1559
1474
1483
1505
1697
1800
1775
2054
1953
1982
2023
2082
10563
8971
7745
7604
8322
9547
9911
9994
9034
8093
7032
6415
5949
5864
5136
5295
7083
7735
6676
6579
6823
6358
6183
5657
4827
6042
6128
4885
4058
4227
4113
4131
4088
3958
3840
3638
3534
3397
3327
3245
3206
3096
2472
2451
2474
2138
1932
1907
1842
1800
1769
1734
2061
2228
2284
1944
1992
2200
2548
4068
3438
2341
2107
2446
7762
7790
8806
9609
10758
12263
12887
12894
11641
10561
9499
8214
7393
6522
5655
5236
5710
4773
4553
4483
4620
4814
5137
6534
8743
9949
9315
7707
5898
6088
6120
5659
5224
4858
4813
4840
4126
3611
2880
2499
2733
3015
2719
2657
2458
2078
2005
2064
1918
2294
3004
3712
4571
4105
4873
5182
3963
3223
3696
5053
5385
3237
3400
4206
9776
11195
10704
13900
15137
15944
16966
16837
14487
12448
10540
8938
7782
7356
6793
4999
4581
5193
7423
7658
8761
9305
10108
10963
10856
10846
11063
10082
8264
8199
7882
6973
6105
4754
3463
3336
3167
2877
2570
2512
2960
3007
2712
2506
2377
2221
2163
2123
2081
2790
4078
5346
4576
5729
7141
8267
6522
4853
4618
5366
5878
3587
4253
6886
14052
15302
13404
15315
19466
20827
20180
18835
15035
11848
10496
9317
8746
8125
5550
4732
5873
9625
11600
12374
12173
11579
11059
10924
10195
10060
10483
10183
9756
9339
7766
5927
4754
4226
3560
3460
3653
3244
2682
2624
2938
2927
2793
2674
2487
2346
2263
2274
2765
3829
4401
5161
6631
8426
10467
11205
8341
6874
6521
6722
7201
5584
3525
6099
18736
19989
16740
16482
19801
19601
16467
15367
12769
10650
10193
9150
8260
5782
4892
6533
11206
14325
15250
14644
13608
12106
10823
10655
10427
11774
11882
10188
9310
8934
7706
5879
4821
4407
4145
4145
3526
3222
2796
2701
2914
2790
2909
2828
2692
2529
2410
2418
2937
4458
6238
8109
9709
11068
12144
12011
9651
9202
8339
8712
9093
7556
5264
4451
22256
22149
19070
20281
21727
20295
15219
11861
10326
9642
8750
7594
5845
5008
6733
10669
15725
18207
18338
17238
15597
13688
11724
10914
10646
11047
10829
9729
9059
9062
7964
6181
4578
4473
4640
4285
3827
4136
3731
3524
3154
3214
2842
2819
2780
2688
2620
3092
4311
5026
6219
8175
9834
11050
11948
12325
11771
11882
11928
12407
11726
9847
6865
4598
19792
21561
23713
24880
23177
18501
13234
10290
9334
7763
6741
5542
5222
6577
10942
15120
18134
17768
17390
16775
15260
14243
12886
11168
10801
11117
10626
10462
9652
9195
8418
6748
5679
5434
5399
5435
5183
5098
5064
5148
4688
4191
3495
3195
3349
3949
4759
6378
7112
7917
8848
9957
11803
12988
13703
14769
15971
15877
15868
15354
14574
12286
8972
6837
18509
22830
27687
28039
22222
16932
14237
12400
9935
7042
5773
5243
6806
9764
15306
18081
17423
16015
14250
13449
12984
11380
11220
11224
10727
10549
10210
9652
9740
9644
8875
7134
6384
6440
7006
7061
6987
6449
6453
6500
6141
5488
5402
4432
5717
7604
8232
9758
10374
11221
12268
13861
15041
16446
17501
18283
18456
18198
17893
16309
14634
12757
10115
8468
21647
25585
29940
27799
22272
18396
16522
13683
9116
6611
5622
5724
10014
13430
18102
20680
18964
16451
14031
11877
10122
9234
8832
9075
9630
9409
9252
9424
9345
9768
9259
7960
7223
7255
8255
9138
9066
8468
8451
8607
8501
8470
7875
5720
6650
9776
11856
13299
13551
14154
15049
16846
18173
19287
19762
19543
19006
18193
17569
16020
14706
14070
11556
8560
21022
25292
28602
26595
21511
20240
17102
13246
8822
7394
5923
6960
12095
16923
21172
22793
21825
19786
16995
14140
11179
8965
8742
8742
8805
8833
8742
8734
8845
9886
9665
8631
9254
9995
10298
10711
10668
11258
11699
11658
11958
11320
9455
6857
7014
10677
14303
15042
15814
16662
16776
18227
19769
20948
21786
21022
19824
18112
17354
17117
16478
14694
11507
8248
18656
22039
24697
25348
20844
17360
16399
12574
9321
7993
6376
7098
12287
17724
22891
24809
24340
23762
22066
19112
13660
10098
8758
8742
8742
8742
8740
8821
9153
9621
9903
10183
11858
12789
13577
14406
14875
15658
16017
15729
15586
14099
11269
7650
7955
10624
13824
15671
17933
19290
19915
21082
22563
23330
24105
21240
18919
17645
16721
16581
15057
12402
9137
6417
19193
21064
24540
25161
21058
16369
13496
11784
9725
8251
6815
6753
12028
17060
22815
25285
25576
25095
24224
22564
17357
12742
9798
8843
8731
8727
9066
9418
9906
10516
11300
11845
13109
15582
18682
20642
20887
20233
20873
20365
20117
17101
11563
7683
10680
14356
15138
18553
22773
24356
24525
25073
26343
26480
25959
23420
19412
16322
15258
14320
12284
9782
6975
6170
24124
23866
25328
27280
22833
18789
17445
15648
12211
8559
6330
6349
11299
16711
22690
25063
24986
25141
24614
23811
22211
17701
13388
10855
10120
10412
10513
10880
11874
12445
13018
13301
14817
19364
22818
24193
24888
24412
25383
24453
25744
20623
11720
8720
15003
20783
21236
21376
23937
26241
24681
25143
26285
25545
23814
22725
19675
15731
13384
11775
9861
8570
6478
7371
29330
28975
29489
30726
27894
23907
21200
18347
14298
9170
6069
6854
11935
17331
23053
25097
24751
24778
24450
24006
22629
20950
18207
15068
12795
12839
12800
12720
14268
15186
15026
14846
16535
22164
25499
26837
28937
32891
33405
32836
33446
24834
15077
12344
18710
22010
25139
26090
26138
24648
20979
20519
20809
20713
20703
19683
18034
14862
12446
10959
9253
7221
6744
10969
34340
31136
29013
29571
28177
25097
22212
18511
15116
8504
6180
8908
15114
19901
23368
24353
24336
24649
24600
24450
23041
21234
20252
19002
16758
14672
14662
14992
16560
17452
16708
17096
18645
23112
26894
31165
35690
40504
39955
37450
32636
22956
15918
17752
25815
26115
28537
30118
27250
22756
19574
17354
16853
16782
16931
17231
15299
12761
11223
9809
8441
6741
9266
13531
36895
31922
28016
26614
25833
23450
20356
16931
14949
8083
6538
11133
16198
20824
23328
23946
23942
25029
25721
25463
23635
21714
22052
21442
20340
18036
17167
17503
19489
19122
18927
20233
23423
27436
34108
39638
41198
38428
34992
30944
25697
18246
16384
20623
27907
29207
30425
31685
27761
22831
19355
17254
15464
14167
13605
13465
12321
10511
9474
8365
7392
6797
9206
11821
35974
31408
26754
24143
22441
20616
18031
15392
13529
8602
6634
10917
16377
19604
22116
23879
23822
24443
25340
25443
23824
23121
23634
23161
22328
20727
19293
19537
21768
21496
21502
24105
29541
36469
40360
39992
36578
32010
26874
23313
18889
17108
22803
24894
29896
33101
32769
31394
28380
25723
21971
19912
18175
16167
14698
13455
12665
12311
11068
9306
7520
7375
9056
11462
32979
30302
27687
25188
22249
21306
19531
16058
13062
9515
6743
9573
15796
18713
21007
23146
22977
23724
24224
23317
22327
23683
24689
24618
24616
23489
21578
22356
24234
25502
28850
30643
38597
39439
35836
32659
28013
23231
21041
21382
20475
22740
26047
31740
37295
36856
34141
31283
30618
30009
26571
24029
21443
18861
17529
17035
17183
16092
13902
10908
7779
9149
11186
13091
33958
31263
29202
25544
21506
20780
19523
16559
13743
9671
6805
9231
15164
17451
20035
20852
20245
21457
22025
21243
22120
24124
25603
26164
25733
24461
23170
24278
26404
29038
32981
38043
40364
36403
30168
25031
22056
20629
22888
26700
24461
25986
30695
34097
38337
37229
34924
33351
31031
28588
26819
24232
22744
21781
21907
21652
19737
16615
13445
11095
8773
9405
11960
14449
38709
35531
31530
26322
21874
18741
17387
15866
14829
9742
7224
10511
14724
16005
17614
18405
18107
18564
19184
20203
21626
23512
24956
26025
25463
24643
24698
26090
28854
32115
36756
41091
38662
34575
27318
23344
22894
24138
27664
29398
28361
30843
35231
40004
42248
38893
34563
33399
32933
30969
28351
25738
24410
24676
24796
22864
19937
15733
12823
10893
9267
10368
11319
13815
40434
34931
30495
25676
21047
16830
14736
15008
14856
9627
8976
13167
13926
14823
16003
16459
16746
18051
18967
20036
21623
23735
24843
25428
26440
26847
26970
29298
33508
39169
44764
45424
41648
35323
30796
28764
29971
31263
33091
32235
31736
36143
38438
45354
48536
44589
39794
38446
37943
34863
31881
28664
25969
26777
26131
23979
20089
16104
12945
10201
10113
12061
13684
16888
38255
37497
32839
28034
22692
17434
14049
14228
13969
9091
9291
13210
13391
13725
14341
15028
16462
17672
19259
20723
23171
25738
27274
28257
29697
31705
35365
37328
42301
48373
47904
44692
40412
36203
34570
33986
35717
35741
35748
37540
34531
38089
43720
48946
50740
47341
43329
40018
36495
34327
32077
29556
27774
29314
28127
25288
20636
16313
13195
10363
11508
14493
16758
20399
34515
36053
34892
29496
23736
18583
14353
13054
13354
9577
9549
12658
13249
13605
14254
15104
15871
17378
20052
22003
25530
28995
31816
35127
38714
40562
44917
45380
49272
50047
45413
43065
40757
39878
37696
36743
39291
41440
40540
43830
41029
42102
47856
48007
44872
43433
40754
38543
36111
34866
32823
30886
31114
31755
30248
27184
22845
17094
12728
11135
14806
19810
23902
26473
30193
31418
32012
30195
25178
19999
15840
13046
12655
10304
9467
12654
13302
13809
14569
15447
16389
17682
20576
24122
29399
34184
38554
41664
43084
47294
51424
54884
55161
51694
49035
46177
43587
42548
40192
40532
44943
48146
48569
50754
48827
49512
52470
51622
45257
42615
40996
39699
40832
39271
36468
34592
32751
31608
30442
28827
24193
15906
10865
13503
21140
27399
29218
28808
27849
27065
27950
28130
25189
21565
18158
14523
12149
9467
9714
12836
13171
13817
14700
15860
17313
18333
20943
26675
31361
32734
36420
43804
45511
49564
56152
61308
60332
57698
55822
53202
49395
46660
46848
48763
52910
54356
53951
53790
50761
50353
48892
51046
50616
47775
44785
41904
39425
36321
32601
30146
26994
25313
23988
22332
17279
12339
11841
16265
24667
31168
31253
30405
25694
24411
23467
24318
23832
22153
20222
16718
12817
8774
10117
12168
12971
13891
14946
16213
17918
19605
21978
25617
28029
30639
36570
47913
53175
56365
57238
56050
56163
55442
52720
52142
51817
51724
53880
53200
51639
51203
49919
50284
45930
44694
42936
43236
44806
42943
39289
35191
32193
28870
26361
23062
20216
17697
15682
14034
12282
11564
13045
20668
29308
33502
31461
32046
22723
22409
19773
20519
21530
20138
18269
16755
11649
9371
10457
11682
12599
13640
15182
16757
18234
20162
22631
25472
28294
31419
40131
51328
54899
54177
53337
51660
50789
50287
49226
47519
46190
46838
49182
50619
46928
47555
44703
46357
42125
39305
38319
36528
36248
34485
32288
29864
26341
23500
20939
17072
14388
12932
12536
12650
13051
13776
16055
21045
28525
34511
36272
38621
20690
19201
18688
16185
17224
17493
16516
14431
10243
9507
10327
11330
12156
13434
15009
16435
17995
20226
23628
27627
31437
37103
45807
54362
54623
52998
52292
50263
49012
47991
47454
45886
44824
43709
43040
46193
43756
44440
41347
41695
38609
33877
32325
30698
29708
28053
26288
24190
20919
18221
15776
13263
13163
14319
17824
19444
19853
22079
23039
21567
26613
33860
39187
41618
18724
17322
15011
14107
12608
13465
14246
12494
9230
9358
10037
10874
11929
13169
14360
15993
18435
21090
24103
27734
31839
41701
52170
58484
55703
53118
51015
49319
47063
45789
45135
43772
42622
41121
39851
40748
39606
39054
36581
35190
32885
28448
26206
24678
22956
21587
20579
18710
16361
15203
14589
15404
18798
24212
28341
27565
26164
29381
28259
23033
25213
31490
37041
39644
13595
14045
12176
11453
10634
10118
10129
10145
8705
9017
9605
10499
11471
12644
14054
16094
18581
21013
24527
28907
34164
44973
53154
58402
55050
51150
49403
48594
47262
44890
44004
41574
40387
38894
36754
35476
34011
31886
30516
27742
25957
22164
20679
19061
17435
16736
16328
15601
15393
16074
18823
23167
26757
32517
35547
30684
29868
33506
29247
24107
24848
30053
37622
44199
10156
10277
10118
9951
9409
8800
8497
8484
8523
8722
9212
9997
10955
12665
14189
16155
18689
21134
23921
28567
35266
45037
49792
56098
53038
49579
48375
48228
47289
44884
42574
41263
39676
37768
35361
32524
30297
26659
23642
21780
20388
19857
19887
21046
19247
17328
16837
17778
19941
22054
27056
32100
31661
37012
38262
33557
33616
36563
30410
25776
25843
32124
40630
47031
8949
8833
8778
8626
8537
8489
8461
8428
8496
8612
9053
9853
11227
12741
14280
16149
18493
21511
25622
30338
34822
40859
46963
54625
52777
50544
49942
49022
47291
45702
44050
42801
40772
38260
35718
33190
30170
24459
21912
21535
21349
22684
25775
27159
26340
24908
24387
26199
29244
29869
33908
39256
35382
41144
39190
35800
38203
38834
31819
31988
30819
33070
39769
47202
9103
8877
8618
8519
8508
8496
8438
8448
8477
8724
9188
9715
10943
12206
14103
17808
21683
24185
28902
30480
31760
35719
44461
53171
54224
52770
51034
48814
47537
45455
44205
42659
40834
38810
36406
34251
30209
25728
24915
26325
28348
30955
34752
34544
35601
36087
35715
37015
39467
37150
39053
43865
39506
43140
40508
38580
42042
40666
35142
38469
35799
36006
38823
47129
10355
9507
8607
8525
8500
8449
8438
8511
8651
9100
9455
9657
10463
11905
14609
19277
23720
25861
27107
28027
30132
32897
38859
45896
50313
51745
49903
48031
49378
50274
46146
42978
41465
39353
37829
36351
33163
31666
34077
36178
38568
41580
44545
41548
44009
48290
48626
48180
48608
45041
45556
48915
47000
47681
46396
44865
45916
43899
41134
44007
40588
42028
43104
48301
11962
9966
8643
8504
8534
8702
8443
8571
8816
9224
9553
9839
10449
11487
13387
18116
20228
21981
24195
26586
27519
29014
30698
35058
39962
42219
43182
45622
51501
52697
48590
46860
45089
43824
42161
39659
35374
36432
39855
42624
43575
46321
48840
46789
48699
52806
54666
53558
51895
50483
51040
52946
52708
52390
51321
49765
48887
47438
46014
47350
44399
46298
45866
43871
12416
10066
8675
8485
8578
8634
8503
8607
8777
9706
10182
10144
10272
10799
12378
15606
17066
19136
21757
24211
23878
25203
26974
29215
31101
33356
35934
40002
45128
45714
44988
44835
44974
45486
40858
38003
36363
37592
41975
44948
44063
42611
43448
45546
48477
48890
49297
47164
44960
45317
45883
45695
44227
44338
45085
44786
43990
44128
44799
42300
39536
39997
41558
38699
12019
10152
8892
8510
8493
8501
8498
8530
8934
10093
10853
11887
11439
10890
11757
13544
15450
17099
18967
20404
20836
22426
25197
26917
28309
29773
32899
36522
37350
37355
38259
38460
39690
40581
38546
37227
39598
40760
42901
41545
40995
39060
39852
41326
43424
42645
42112
39637
38071
38454
40012
40380
38510
37034
38099
39208
38419
38612
40233
38273
35904
37964
38513
35670
14118
11411
9572
8609
8526
8516
8537
8616
9869
10837
12257
13640
13206
12484
12175
12804
13999
15303
16619
18068
19698
21442
23430
25422
26564
27682
31744
34402
33475
33178
34417
34513
35347
37018
36404
36837
40913
40438
41752
40405
37714
36110
36485
38458
39899
38651
39892
38360
35659
35104
36162
37779
38840
35627
34819
35210
34914
35388
37177
37087
34278
36213
37563
35764
17240
14840
11889
9329
8718
8584
8570
9634
10897
12135
13981
15790
14979
14649
13761
13123
13780
15019
16650
18112
19422
20883
22410
23691
24605
26127
29411
32715
32229
31164
31382
31261
31746
33013
33236
37636
40698
37331
38502
41133
38810
35947
33337
36332
37485
35580
38578
38292
35345
32907
33171
35755
38061
35218
32161
31788
31956
33859
37109
36134
32816
35445
38605
39032
19268
16137
11193
9445
9142
8752
9662
11799
12820
14182
16309
17938
17190
16167
15291
14135
13835
14504
15778
17100
18783
20956
22321
22914
23611
25161
27785
29784
30040
29472
28858
28666
28387
28608
30744
33878
36384
33300
33877
38192
39247
36973
31427
32359
32558
32864
38596
40791
37175
31825
30525
34378
35859
32515
28726
27704
29638
34500
37350
35140
30853
32452
35487
37753
18175
13810
9770
9235
9078
9886
11873
13659
15319
17501
19674
20653
19387
18201
17965
15683
14672
15019
17338
19787
21876
23419
23960
24453
24316
25605
26772
27264
28432
28156
27409
26506
26126
25586
26513
28102
29837
28655
29830
32210
33346
32845
30383
27680
28035
31192
35416
36736
34309
29615
27691
31208
30699
27692
25808
26037
29048
31458
32260
31801
28956
29045
32356
34530
14513
10591
9804
9603
10532
12000
14579
15892
17932
21217
24345
27071
26784
23519
21122
17213
15649
18773
24205
24578
24408
25147
25735
25475
25177
25757
26525
26303
26250
25992
25040
24168
23926
23424
23565
23680
23965
24430
25169
25852
26086
26454
26445
24819
25324
28420
30753
31354
29562
26650
25788
28685
27100
24538
23660
25476
26491
27492
28089
27799
25885
26044
28696
29393
10893
10563
9848
10204
11574
12985
16001
17672
21084
26690
30306
32711
33037
31626
27098
22394
21869
24878
26409
25497
24944
25198
25647
25451
24547
24466
24527
24138
23994
23612
23073
22434
22071
21711
21352
21144
21197
21417
21782
22040
22507
22900
23216
22982
24140
25422
27057
27576
26230
24192
24324
27459
25045
22590
22154
23729
23896
25553
24534
25241
23419
24254
25995
24888
10448
10386
10270
10453
12661
14079
16497
19735
24100
30957
35568
34612
33335
31112
28444
26587
26147
26829
29850
28940
26965
26577
26724
26684
25666
24858
24836
24773
24343
23893
23923
23184
22083
21093
20711
20462
20245
20077
20083
20141
20393
20388
20838
21190
21940
22564
23786
24410
23948
22123
23451
24960
23716
21720
20776
21051
23286
25183
22559
22074
21969
22324
23030
21563
11259
11654
11671
12940
15626
16016
17661
21298
25450
31733
39660
39767
35246
30669
27923
28425
31909
35862
37349
34607
30291
30132
31578
30499
28823
27217
27380
27720
26623
26555
27158
26007
23705
22325
22196
21685
21315
21376
20950
20472
19780
19401
19583
19990
19794
20494
21287
21637
21692
21028
21157
22327
21787
20755
19950
19205
21221
21904
21119
20033
20203
20042
19841
18212
12397
13079
14156
16906
20132
19499
18956
21536
25985
31639
42017
41659
33841
28882
27775
30518
37038
41445
44294
38527
33510
33825
36978
37571
33562
30095
30718
33827
31142
33280
35580
31366
26436
25822
28552
26980
25827
25556
24005
22948
22596
21148
19995
19322
18850
18654
18647
18644
18825
19592
19529
20387
20260
19632
19190
18144
18031
18936
18813
17856
18446
17956
17305
16592
13339
14459
16129
19438
23178
23960
22758
22611
25875
31862
39501
38880
33037
28967
29014
34324
40600
45822
45760
40564
34937
34932
35899
39347
36018
33353
33586
37628
38197
40075
40949
32365
28518
31430
37235
34761
32075
30888
26732
25773
25773
23815
22336
21965
20918
20167
19840
19375
18696
18145
18051
18673
19028
18927
18420
17392
16414
16901
16929
16384
15787
16167
16254
15576
14053
15540
16983
19351
24148
27017
26952
30549
33619
36591
37248
35700
33586
31479
30678
34706
40773
44861
42165
39309
36700
35270
35037
38272
36610
35539
35772
42099
45332
44863
38646
32959
31665
36202
42603
43397
41780
36851
31249
30764
28605
26091
25367
24883
24114
23209
22951
22064
21810
20835
19929
18958
18060
18171
17485
17419
16894
16545
16063
15841
16532
15916
14821
14556
17669
18289
18838
20086
23080
27362
29647
34375
40705
40693
37638
36873
36034
34561
33529
35450
39314
44635
44470
40514
38355
36698
35798
38764
38082
37205
38314
44241
46408
41468
37415
35275
35260
39953
45532
50774
49490
43474
38633
35431
31806
30368
29408
28285
27424
26670
26061
25974
25657
25086
24538
23354
21516
21516
20177
19686
18937
18620
18127
17524
17166
16592
15845
14934
20155
22433
22608
22242
23331
26220
29509
33933
43755
44216
40833
40410
40135
35206
33864
36535
38895
42458
42417
41689
40788
39475
38995
42668
42684
38879
40346
44524
44568
40726
39269
37956
40376
44806
51044
54007
50965
47941
44099
40922
38226
36464
34784
33388
31965
31259
29962
30869
31440
31088
30224
28426
26334
25500
23554
22404
21073
20293
19380
18271
17333
16527
15920
14838
21295
24877
26119
25219
25672
28538
32801
37398
46922
45053
41781
41967
38827
37058
36223
36944
39751
42654
44865
47174
48084
46437
48685
51839
51462
47364
47283
50293
50303
48347
47348
45714
45497
48776
49466
48756
44268
44771
45402
46490
43344
40465
39652
38338
37486
36728
37267
37418
37552
37691
36115
33744
30843
31018
28972
27065
24149
22241
20743
19226
18081
16858
16119
15247
22804
24885
26555
27648
28462
31561
36061
42026
48036
45815
44517
43122
40216
39756
43130
42655
42241
44976
50788
54727
53507
50500
52041
51775
51015
50411
52692
55079
55053
54002
51431
45676
42173
43040
42305
41548
38393
38089
40645
41650
37584
36387
36201
34828
35515
37772
40800
45114
44455
45381
44147
39264
37501
38689
35910
34818
29517
25117
22335
20264
18669
17550
15933
15046
25288
26232
27433
28354
30251
32594
35384
40749
46415
49636
49744
47108
47091
47648
46671
44514
49610
53162
53829
50875
47886
44430
46978
46503
43337
43081
47774
49076
48605
48636
44773
39011
35693
33941
33232
34266
34400
33112
32863
32741
30587
30027
30090
28889
28673
31953
35325
41011
46513
50108
50770
46032
45617
46376
44435
40616
34339
29322
26177
22794
19927
17598
15655
14434
27435
29147
31735
32732
30669
31471
34389
38021
42355
47805
51051
49654
47918
44418
39638
44388
49840
50956
49426
44710
41325
39469
42836
41932
37471
37829
41689
42446
42196
41709
39054
33913
30686
28885
28611
28657
30097
30451
27402
26657
25861
25137
25236
26689
23727
26381
30341
35607
41449
46502
51168
50482
50218
51784
48802
42786
36722
31640
28084
25328
22980
19049
16545
15493
31779
35708
35504
32478
29002
29659
32220
35297
38894
41741
43874
43278
41438
36635
35954
42368
43591
42904
42548
38342
33748
34099
36633
35098
31771
33341
36258
35491
35590
37965
34720
30668
28262
26665
25849
25286
26418
27835
27422
24631
22466
21341
22221
24122
20723
22989
25854
29706
36211
40771
43466
44902
46740
49041
46114
41970
37166
32356
28771
25982
24375
22124
18579
16043
39904
38433
34723
30557
27011
27559
30451
34832
38314
40621
38914
36349
33602
31961
34596
37996
36531
34446
34101
30526
25864
26344
28411
27406
27299
30378
33149
29909
31898
33723
34545
33326
32355
29374
26081
23535
23413
23346
24101
24963
22278
19050
18604
20132
18246
20077
22008
25069
29463
33862
35734
37326
39522
42603
39473
36362
32219
28325
25450
23514
23350
22419
19500
16517
43321
37653
32720
28656
25801
25808
29315
33317
35947
38972
39517
34578
30527
31817
36490
39707
35005
30606
28280
25026
21673
19933
21951
22447
25759
30143
29747
25598
26195
28649
32807
34146
34131
33745
30036
25487
22462
20821
20355
22067
22287
19358
16322
16041
16031
17406
18686
21182
24365
27499
30215
31920
33914
36003
30796
28535
24916
21381
19817
18244
19252
19568
17610
16342
39451
35972
31381
27451
24532
24384
27096
30101
34127
38615
37378
31788
29044
33302
38421
40777
37252
34209
30354
26487
22201
18738
17645
20129
24426
27417
24068
20059
21986
26966
30556
29355
28580
30641
30401
28685
25534
21930
19243
18248
18248
17331
15279
14666
14787
15330
16968
19606
22674
23059
25563
26242
29534
28975
23314
20474
17389
14501
13375
13725
16334
16805
17163
17021
34766
32838
29648
26984
24214
23163
26479
31710
37520
37906
34056
29390
28592
34650
36541
37703
38298
35803
31415
27106
23328
18858
15821
18209
22721
23968
19872
16843
20106
25164
25419
23933
23028
25402
25446
26034
25217
23044
20353
18084
16555
15616
14997
13454
13466
13800
15767
18733
20382
19544
19852
22311
24531
22368
17040
14054
11566
9677
9695
13119
15345
16313
16692
16649
30105
28825
28405
26181
23592
22739
27163
33096
36190
33706
30262
25945
28037
32261
32699
35516
35125
31339
27693
23417
20166
17533
14690
15621
18911
19056
16825
15397
19844
21886
20522
18911
19186
20118
20049
20271
19743
19223
19079
18545
17876
17562
16422
13018
10673
11937
13044
15502
16458
15692
13777
16315
17595
14785
12394
11124
8889
6946
9544
12328
14227
15827
16897
17462
26227
25391
26867
24015
21480
22616
27265
32636
32291
28435
26449
23937
26686
28569
31201
32317
30382
26854
23217
19695
16618
14523
13271
13171
13881
13792
13424
13207
15620
16061
15409
14613
14883
14578
14544
14714
14308
13719
13463
13793
14537
14546
14109
12704
9568
9642
10365
11973
12992
13275
10975
10534
12055
10849
10505
9518
7930
6318
6397
10228
13977
16526
18032
18727
